<svg width="79" height="72" fill="none" xmlns="http://www.w3.org/2000/svg"><path d="M36.933.102h5.69c.81.012 2.371.842 4.252 2.021l19.391 11.841c3.822 2.563 5.543 5.618 5.467 9.092v25.742c.023 3.71-1.682 6.577-4.844 8.733L45.677 70.659c-2.37 1.34-4.594 1.253-6.81 1.093L36.932.102Z" fill="url(#a)"/><path d="M38.533 70.901a8.099 8.099 0 0 0 4.257-1.195l21.058-12.878c2.62-1.602 4.228-4.6 4.199-7.82l-.238-25.886c-.03-3.217-1.692-6.219-4.338-7.834L42.215 2.316a8.24 8.24 0 0 0-4.27-1.218 8.103 8.103 0 0 0-4.249 1.198l-21.01 12.86c-2.612 1.599-4.22 4.588-4.195 7.8l.198 25.85c.024 3.217 1.68 6.222 4.32 7.84l21.247 13.027a8.25 8.25 0 0 0 4.277 1.228Z" fill="url(#b)"/><path d="M37.927 1.535h.017a7.803 7.803 0 0 1 4.044 1.154L63.244 15.66c2.518 1.537 4.1 4.398 4.129 7.465l.238 25.885c.028 3.07-1.501 5.922-3.99 7.445L42.561 69.334a7.665 7.665 0 0 1-3.998 1.132h-.03a7.816 7.816 0 0 1-4.05-1.165L13.237 56.275c-2.513-1.54-4.088-4.404-4.112-7.472l-.198-25.85c-.023-3.06 1.505-5.905 3.987-7.425l21.01-12.86a7.67 7.67 0 0 1 4.003-1.133m0-.436c-1.487 0-2.95.414-4.23 1.198l-21.01 12.859c-2.613 1.6-4.22 4.588-4.196 7.8l.198 25.85c.024 3.218 1.68 6.222 4.32 7.84l21.247 13.027a8.252 8.252 0 0 0 4.277 1.229h.031a8.099 8.099 0 0 0 4.226-1.196l21.058-12.878c2.62-1.602 4.228-4.6 4.199-7.82l-.238-25.886c-.03-3.217-1.692-6.218-4.338-7.833L42.215 2.316a8.24 8.24 0 0 0-4.27-1.217h-.018Z" fill="#F9CAD1" opacity=".2"/><path d="m66.866 25.422-2.375-.004-2.599-4.717-5.13-.01-2.596-4.714-5.128-.009-2.594-4.713-5.124-.007-2.592-4.71-5.123-.008-1.237-2.249c1.94-1.51 3.797-2.344 5.54-2.277l3.258.005 2.592 4.709 5.124.007 2.595 4.712 5.128.007 2.596 4.714 3.88.007c3.195 1.647 4.059 5.029 3.785 9.257Z" fill="url(#c)"/><path d="m66.932 32.408-.423-.767-5.133-.01-2.598-4.719-5.13-.01-2.596-4.716-5.127-.009-2.593-4.714-5.126-.008-2.591-4.712-5.123-.008-2.59-4.71-1.647-.003-6.284 3.847.372.676 5.12.009 2.59 4.71 5.123.01 2.59 4.712 5.126.01 2.594 4.715 5.127.009 2.595 4.717 5.13.01 2.598 4.72 5.133.011 2.6 4.722.377.001-.114-8.493Z" fill="url(#d)"/><path d="m67.033 46.39-4.184-.01-2.6-4.724-5.132-.011-2.598-4.721-5.129-.01-2.595-4.72-5.127-.01-2.593-4.716-5.125-.01-2.591-4.714-5.124-.01-2.589-4.712-5.12-.01-1.672-3.041c-1.716.928-3.205 1.868-3.83 2.858l.475.001 2.587 4.712 5.12.01 2.59 4.713 5.123.01 2.59 4.716 5.126.01 2.592 4.718 5.128.01 2.595 4.72 5.13.011 2.596 4.722 5.133.012 2.599 4.725 5.135.012.99 1.8c.616-1.302.67-3.62.5-6.342Z" fill="url(#e)"/><path d="m62.409 56.778-5.135-.013-2.599-4.726-5.132-.012-2.596-4.724-5.13-.012-2.594-4.72-5.128-.012-2.593-4.72-5.125-.01-2.591-4.718-5.124-.01-2.589-4.716-5.121-.01-1.531-2.79.054 7.775 3.914.009 2.589 4.716 5.124.012 2.59 4.718 5.125.012 2.593 4.72 5.127.013 2.594 4.722 5.13.013 2.597 4.725 5.132.012 2.598 4.727 7.82-4.98Z" fill="url(#f)"/><path d="m7.457 22.951.197 25.85c.027 3.608 1.884 6.978 4.845 8.793l21.247 13.028A9.25 9.25 0 0 0 38.543 72a9.08 9.08 0 0 0 4.775-1.341L64.377 57.78c2.938-1.797 4.743-5.158 4.71-8.771l-.24-25.886c-.033-3.608-1.897-6.975-4.865-8.786L42.725 1.366A9.24 9.24 0 0 0 37.936 0a9.086 9.086 0 0 0-4.765 1.344L12.163 14.203c-2.93 1.793-4.734 5.145-4.706 8.748ZM8.78 49.14 8.577 22.62c-.023-2.984 1.458-5.738 3.885-7.223L34.014 2.206C36.442.72 39.45.727 41.903 2.225l21.805 13.307c2.458 1.5 3.99 4.265 4.017 7.254l.244 26.553c.028 2.994-1.455 5.754-3.888 7.242L42.479 69.793c-2.433 1.488-5.445 1.476-7.902-.03L12.78 56.398c-2.8-1.698-4.083-3.96-4-7.26Z" fill="url(#g)"/><path d="M37.955 2.025a6.779 6.779 0 0 1 3.513 1.002l21.805 13.308c2.178 1.329 3.545 3.799 3.57 6.446l.243 26.553c.024 2.65-1.3 5.117-3.455 6.435L42.03 68.979a6.664 6.664 0 0 1-3.503.984 6.788 6.788 0 0 1-3.519-1.01L13.212 55.59c-2.533-1.536-3.628-3.515-3.555-6.419v-.032l-.204-26.518c-.02-2.644 1.303-5.103 3.453-6.419L34.459 3.011a6.667 6.667 0 0 1 3.496-.986Zm-.008-.93a7.488 7.488 0 0 0-3.934 1.109L12.46 15.395c-2.427 1.486-3.908 4.239-3.885 7.224l.203 26.517c-.083 3.3 1.2 5.563 4 7.26L34.575 69.76a7.624 7.624 0 0 0 3.96 1.138 7.484 7.484 0 0 0 3.942-1.107L64.08 56.58c2.434-1.49 3.916-4.25 3.888-7.243l-.244-26.554c-.027-2.988-1.559-5.753-4.017-7.254L41.901 2.222a7.614 7.614 0 0 0-3.954-1.128Z" fill="#304463"/><g opacity=".5" fill="#000"><path d="m4.026 48.215 68.685.231c1.293.005 2.332-1.102 2.319-2.472l-.151-16.098c-.013-1.369-1.071-2.48-2.364-2.485l-68.648-.198c-1.288-.004-2.324 1.1-2.314 2.467l.12 16.071c.01 1.367 1.063 2.48 2.353 2.484Z"/><path d="m3.868 27.192 68.647.198c1.293.004 2.351 1.116 2.364 2.484l.151 16.099c.013 1.37-1.025 2.476-2.319 2.472l-68.685-.232c-1.29-.004-2.343-1.116-2.353-2.483l-.12-16.072c-.01-1.366 1.026-2.47 2.315-2.466m-.007-.92C2.096 26.267.672 27.785.686 29.656l.12 16.07c.014 1.873 1.461 3.401 3.227 3.407l68.687.233c1.771.007 3.198-1.515 3.18-3.39l-.15-16.1c-.018-1.873-1.473-3.402-3.243-3.407L3.86 26.272Z"/><path d="m3.87 27.584 68.649.2c1.086.002 1.979.94 1.99 2.09l.15 16.099c.011 1.151-.864 2.085-1.952 2.081l-68.684-.23c-1.084-.005-1.973-.942-1.981-2.092l-.12-16.071c-.009-1.149.865-2.08 1.948-2.077Zm-.003-.391c-1.288-.004-2.324 1.1-2.314 2.467l.12 16.071c.01 1.367 1.063 2.48 2.353 2.484l68.685.231c1.293.005 2.332-1.102 2.319-2.472l-.151-16.098c-.013-1.369-1.071-2.48-2.364-2.485l-68.648-.198Z"/></g><path d="M69.874 24.546h5.71c1.741 0 2.898 1.385 2.937 2.936v17.296c.029 1.998-.957 2.988-2.576 2.971h-5.456l-.615-23.203Z" fill="url(#h)"/><path d="m4.012 46.372 68.683.229c1.293.004 2.33-1.103 2.318-2.472l-.151-16.097c-.013-1.368-1.071-2.48-2.364-2.484l-68.644-.195c-1.288-.004-2.325 1.1-2.314 2.466l.12 16.07c.01 1.367 1.063 2.479 2.352 2.483Z" fill="#133F73"/><path d="m3.854 25.353 68.645.195c1.292.004 2.35 1.116 2.363 2.484l.151 16.097c.013 1.37-1.025 2.477-2.318 2.472l-68.682-.228c-1.29-.005-2.343-1.117-2.353-2.484l-.12-16.07c-.01-1.366 1.026-2.47 2.314-2.466m-.007-.92C2.083 24.43.66 25.947.673 27.818l.12 16.07c.014 1.872 1.461 3.4 3.227 3.406l68.683.23c1.772.006 3.198-1.515 3.18-3.39l-.15-16.098c-.018-1.874-1.473-3.402-3.243-3.407l-68.643-.194Z" fill="url(#i)"/><path d="m3.857 25.744 68.645.196c1.087.003 1.98.94 1.99 2.09l.15 16.098c.011 1.15-.864 2.084-1.951 2.08l-68.682-.227c-1.083-.004-1.972-.942-1.98-2.09l-.12-16.07c-.01-1.149.865-2.08 1.948-2.077m-.003-.392c-1.288-.003-2.325 1.101-2.314 2.467l.12 16.07c.01 1.367 1.063 2.479 2.352 2.483l68.683.229c1.293.004 2.33-1.103 2.318-2.472l-.15-16.097c-.014-1.368-1.072-2.48-2.365-2.484l-68.644-.195Z" fill="#420917"/><path d="m3.848 25.352.004.882 68.645.195c.81.003 1.475.725 1.484 1.61l.15 16.097a1.62 1.62 0 0 1-.459 1.169 1.362 1.362 0 0 1-.974.412L4.016 45.49c-.805-.003-1.466-.724-1.473-1.608l-.12-16.07c-.003-.45.16-.864.46-1.166.263-.265.606-.411.965-.411v-.882Zm0 0c-1.285 0-2.318 1.102-2.307 2.466l.12 16.07c.01 1.367 1.063 2.479 2.352 2.483l68.682.229h.008c1.29 0 2.324-1.105 2.31-2.472l-.15-16.097c-.013-1.368-1.071-2.48-2.364-2.484l-68.644-.195h-.006Z" fill="#0F203A"/><path d="M19.105 32.18c-.415-.383-.968-.576-1.658-.578l-3.229-.01c-.68-.002-1.211.188-1.594.569-.384.38-.655.861-.816 1.442l-2.6 9.276 2.966.01.701-2.712 6.124.02.748 2.716 2.968.01-2.733-9.295a3.112 3.112 0 0 0-.877-1.448Zm-5.529 5.287.818-3.162 2.997.01.86 3.166-4.675-.014Zm27.06-5.796-2.426 9.443c-.16.625-.437 1.117-.83 1.476-.395.36-.947.538-1.659.536l-.974-.003c-.67-.002-1.196-.195-1.575-.579-.38-.383-.654-.866-.824-1.448l-1.26-4.144-.472 2.297-.387 1.84a2.562 2.562 0 0 1-.823 1.443c-.43.381-.99.57-1.68.568l-1.067-.003c-.68-.003-1.218-.187-1.613-.555-.395-.367-.672-.858-.831-1.472l-2.441-9.455 2.983.009 2.142 8.76.541.001 2.031-8.747 2.969.009 2.686 8.763.495.001 2.045-8.748 2.97.008Zm9.148.601c-.416-.383-.97-.576-1.66-.578l-3.234-.01c-.68-.002-1.213.188-1.596.569-.384.381-.656.862-.816 1.443l-2.597 9.282 2.971.01.7-2.713 6.132.02.751 2.717 2.972.01-2.744-9.301a3.117 3.117 0 0 0-.879-1.449Zm-5.532 5.29.816-3.163 3.002.009.863 3.17-4.681-.015Zm22.214-5.813-1.668 5.215c-.17.678-.457 1.184-.861 1.517-.405.333-.953.498-1.645.496l-1.536-.005.037 4.074-2.679-.009-.036-4.073-1.52-.005c-.692-.002-1.243-.171-1.653-.507-.411-.335-.707-.842-.889-1.521l-1.792-5.225 2.863.009 1.634 4.69 5.346.017 1.535-4.682 2.864.009Z" fill="#000" style="mix-blend-mode:multiply" opacity=".5"/><path d="M19.095 30.866c-.415-.384-.968-.576-1.657-.578l-3.23-.01c-.68-.002-1.21.188-1.594.568-.383.381-.655.862-.815 1.442l-2.6 9.275 2.966.01.7-2.71 6.124.019.748 2.715 2.968.01-2.733-9.294a3.11 3.11 0 0 0-.877-1.447Zm-5.528 5.286.817-3.162 2.998.01.86 3.166-4.675-.014Zm27.059-5.796L38.2 39.8c-.16.624-.437 1.116-.83 1.475-.395.36-.947.539-1.659.536l-.974-.003c-.67-.002-1.196-.195-1.575-.578-.38-.384-.654-.867-.824-1.449l-1.26-4.143-.472 2.296-.387 1.84a2.562 2.562 0 0 1-.823 1.444c-.43.38-.99.57-1.68.568l-1.067-.004c-.68-.002-1.218-.187-1.613-.554-.395-.367-.672-.859-.831-1.473l-2.44-9.454 2.982.01 2.142 8.758.541.002 2.031-8.747 2.969.009 2.686 8.762.495.002 2.045-8.749 2.97.01Zm9.147.6c-.416-.383-.97-.576-1.66-.578l-3.234-.01c-.68-.001-1.212.189-1.596.57-.383.38-.655.862-.815 1.443l-2.597 9.281 2.97.01.7-2.713 6.132.02.752 2.717 2.972.01-2.744-9.3a3.116 3.116 0 0 0-.88-1.45Zm-5.532 5.29.816-3.163 3.002.009.863 3.17-4.68-.015Zm22.214-5.813-1.668 5.215c-.17.678-.457 1.184-.862 1.516-.404.333-.953.499-1.644.496l-1.536-.004.037 4.073-2.679-.008-.036-4.074-1.52-.005c-.692-.002-1.243-.17-1.653-.506-.411-.335-.707-.842-.888-1.521l-1.793-5.225 2.863.009 1.634 4.69 5.346.017 1.535-4.682 2.864.009Z" fill="url(#j)"/><path d="M19.095 30.866c-.415-.383-.968-.576-1.657-.578l-3.23-.01c-.68-.001-1.21.188-1.594.569-.383.38-.655.861-.815 1.442l-2.6 9.275 2.966.01.7-2.711 6.124.02.748 2.715 2.968.01-2.733-9.294a3.11 3.11 0 0 0-.877-1.448Zm-5.528 5.287.817-3.162 2.998.009.86 3.167-4.675-.014Zm27.059-5.796L38.2 39.799c-.16.624-.437 1.117-.83 1.476-.395.36-.947.538-1.659.536l-.974-.003c-.67-.002-1.196-.195-1.575-.579-.38-.383-.654-.866-.824-1.448l-1.26-4.144-.472 2.297-.387 1.84a2.561 2.561 0 0 1-.823 1.443c-.43.381-.99.57-1.68.568l-1.067-.003c-.68-.002-1.218-.187-1.613-.555-.395-.367-.672-.858-.831-1.472l-2.44-9.454 2.982.009 2.142 8.759.541.001 2.031-8.746 2.969.008 2.686 8.763.495.001 2.045-8.748 2.97.009Zm9.147.6c-.416-.383-.97-.576-1.66-.578l-3.234-.01c-.68-.002-1.212.188-1.596.57-.383.38-.655.861-.815 1.442l-2.597 9.282 2.97.01.7-2.713 6.132.02.752 2.717 2.972.01-2.744-9.301a3.116 3.116 0 0 0-.88-1.449Zm-5.532 5.29.816-3.163 3.002.009.863 3.169-4.68-.014Zm22.214-5.814-1.668 5.215c-.17.679-.457 1.184-.862 1.517-.404.333-.953.498-1.644.496l-1.536-.005.037 4.074-2.679-.009-.036-4.073-1.52-.005c-.692-.002-1.243-.17-1.653-.506-.411-.335-.707-.843-.888-1.522l-1.793-5.224 2.863.009 1.634 4.69 5.346.017 1.535-4.682 2.864.008Z" stroke="url(#k)" stroke-width=".271" stroke-miterlimit="10"/><defs><linearGradient id="a" x1="54.335" y1="71.843" x2="54.335" y2=".102" gradientUnits="userSpaceOnUse"><stop offset=".04" stop-color="#7E7E7E"/><stop offset=".18" stop-color="#6E6E6E"/><stop offset=".24" stop-color="#535353"/><stop offset=".31" stop-color="#363636"/><stop offset=".5" stop-color="#282828"/><stop offset=".7" stop-color="#3C3C3C"/><stop offset=".73" stop-color="#5B5B5B"/><stop offset=".77" stop-color="#C9C9C9"/><stop offset=".79" stop-color="#C7C7C7"/><stop offset=".92" stop-color="#BFBFBF"/></linearGradient><linearGradient id="b" x1="9.936" y1="36.041" x2="66.977" y2="36.041" gradientUnits="userSpaceOnUse"><stop stop-color="#3579F7"/><stop offset=".453" stop-color="#104479"/><stop offset="1" stop-color="#1A51AD"/></linearGradient><linearGradient id="c" x1="49.675" y1="28.001" x2="49.675" y2="-.999" gradientUnits="userSpaceOnUse"><stop stop-color="#959595"/><stop offset=".546" stop-color="#F7F7F7"/><stop offset="1" stop-color="#828282"/></linearGradient><linearGradient id="d" x1="43.508" y1="8.022" x2="43.508" y2="41.001" gradientUnits="userSpaceOnUse"><stop stop-color="#959595"/><stop offset=".361" stop-color="#F7F7F7"/><stop offset="1" stop-color="#828282"/></linearGradient><linearGradient id="e" x1="39.071" y1="15" x2="39.071" y2="53" gradientUnits="userSpaceOnUse"><stop offset=".016" stop-color="#959595"/><stop offset=".345" stop-color="#F7F7F7"/><stop offset="1" stop-color="#828282"/></linearGradient><linearGradient id="f" x1="35.915" y1="25.586" x2="35.915" y2="62" gradientUnits="userSpaceOnUse"><stop stop-color="#959595"/><stop offset=".361" stop-color="#F7F7F7"/><stop offset="1" stop-color="#828282"/></linearGradient><linearGradient id="g" x1="62.145" y1="12.117" x2="14.395" y2="59.867" gradientUnits="userSpaceOnUse"><stop offset=".035" stop-color="#A0A0A0"/><stop offset=".132" stop-color="#E2E2E2"/><stop offset=".181" stop-color="#fff"/><stop offset=".278" stop-color="#DDD"/><stop offset=".417" stop-color="#B2B2B2"/><stop offset=".526" stop-color="#979797"/><stop offset=".591" stop-color="#8E8E8E"/><stop offset=".625" stop-color="#BABABA"/><stop offset=".658" stop-color="#DFDFDF"/><stop offset=".685" stop-color="#F6F6F6"/><stop offset=".702" stop-color="#fff"/><stop offset=".821" stop-color="#C2C2C2"/><stop offset=".919" stop-color="#8E8E8E"/></linearGradient><linearGradient id="h" x1="74.197" y1="47.747" x2="74.197" y2="24.546" gradientUnits="userSpaceOnUse"><stop offset=".04" stop-color="#363636"/><stop offset=".22" stop-color="#636363"/><stop offset=".59" stop-color="#6C6C6C"/><stop offset=".71" stop-color="#888"/><stop offset=".84" stop-color="#9F9F9F"/><stop offset=".92" stop-color="#A8A8A8"/></linearGradient><linearGradient id="i" x1="61.899" y1="59.6" x2="14.656" y2="12.357" gradientUnits="userSpaceOnUse"><stop stop-color="#B1B1B1"/><stop offset=".249" stop-color="#F8F8F8"/><stop offset=".531" stop-color="#fff"/><stop offset=".818" stop-color="#E5E5E5"/><stop offset="1" stop-color="#A3A3A3"/></linearGradient><linearGradient id="j" x1="37.827" y1="41.81" x2="37.827" y2="30.278" gradientUnits="userSpaceOnUse"><stop stop-color="#F5FAFC"/><stop offset=".443" stop-color="#95A0A6"/><stop offset=".449" stop-color="#fff"/></linearGradient><linearGradient id="k" x1="37.831" y1="41.988" x2="37.831" y2="30.102" gradientUnits="userSpaceOnUse"><stop stop-color="#CFD8DA"/><stop offset="1" stop-color="#fff"/></linearGradient></defs></svg>
