<svg width="79" height="72" fill="none" xmlns="http://www.w3.org/2000/svg"><path d="m38.476 63.278 3.048 2.344-1.189-3.778 3.009-2.322-3.743-.013-1.188-3.777-1.125 3.769-3.742-.014 3.047 2.343-1.125 3.77 3.008-2.322Z" fill="#382323" style="mix-blend-mode:multiply" opacity=".5"/><path d="m38.469 62.296 3.047 2.344-1.188-3.778 3.008-2.322-3.743-.013-1.188-3.777-1.124 3.769-3.742-.014 3.047 2.343-1.125 3.77 3.008-2.322Z" fill="url(#a)"/><path d="m38.414 55.774-.913 3.063-3.041-.012 2.476 1.905-.915 3.063 2.445-1.886 2.477 1.905-.966-3.071 2.445-1.887-3.042-.01-.966-3.07Z" fill="url(#b)"/><path d="m27.776 57.978 2.338 1.798-.91-2.9 2.308-1.781-2.872-.01-.91-2.899-.865 2.893-2.87-.01 2.336 1.797-.863 2.893 2.308-1.781Z" fill="#382323" style="mix-blend-mode:multiply" opacity=".5"/><path d="m27.769 57.226 2.338 1.799-.911-2.9 2.308-1.781-2.871-.01-.911-2.899-.864 2.892-2.871-.01 2.337 1.798-.864 2.893 2.309-1.782Z" fill="url(#c)"/><path d="m27.727 52.219-.702 2.35-2.334-.008 1.9 1.461-.702 2.352 1.876-1.449 1.9 1.462-.74-2.356 1.876-1.448-2.334-.008-.74-2.356Z" fill="url(#d)"/><defs><linearGradient id="a" x1="38.438" y1="54.798" x2="38.438" y2="66.3" gradientUnits="userSpaceOnUse"><stop stop-color="#959595"/><stop offset=".365" stop-color="#DFDFDF"/><stop offset="1" stop-color="#9D9D9D"/></linearGradient><linearGradient id="b" x1="41.08" y1="58.415" x2="36.469" y2="62.378" gradientUnits="userSpaceOnUse"><stop stop-color="#F0F0F0"/><stop offset=".441" stop-color="#F0F0F0"/><stop offset=".514" stop-color="#F0F0F0"/><stop offset=".519" stop-color="#F0F0F0"/><stop offset=".52" stop-color="#F0F0F0"/><stop offset=".525" stop-color="#E3E5E7"/><stop offset=".537" stop-color="#CDD4D8"/><stop offset=".551" stop-color="#BCC6CC"/><stop offset=".568" stop-color="#B0BCC4"/><stop offset=".592" stop-color="#A9B7C0"/><stop offset=".659" stop-color="#A8B6BF"/><stop offset="1" stop-color="#DFE7ED"/></linearGradient><linearGradient id="c" x1="27.746" y1="51.471" x2="27.746" y2="60.299" gradientUnits="userSpaceOnUse"><stop stop-color="#959595"/><stop offset=".365" stop-color="#DFDFDF"/><stop offset="1" stop-color="#9D9D9D"/></linearGradient><linearGradient id="d" x1="29.772" y1="54.245" x2="26.232" y2="57.287" gradientUnits="userSpaceOnUse"><stop stop-color="#F0F0F0"/><stop offset=".441" stop-color="#F0F0F0"/><stop offset=".514" stop-color="#F0F0F0"/><stop offset=".519" stop-color="#F0F0F0"/><stop offset=".52" stop-color="#F0F0F0"/><stop offset=".525" stop-color="#E3E5E7"/><stop offset=".537" stop-color="#CDD4D8"/><stop offset=".551" stop-color="#BCC6CC"/><stop offset=".568" stop-color="#B0BCC4"/><stop offset=".592" stop-color="#A9B7C0"/><stop offset=".659" stop-color="#A8B6BF"/><stop offset="1" stop-color="#DFE7ED"/></linearGradient></defs></svg>
