<svg width="138" height="27" fill="none" xmlns="http://www.w3.org/2000/svg"><g filter="url(#a)"><path d="M16.347 4.88A6 6 0 0 1 21.472 2h95.257a6 6 0 0 1 5.125 2.88l3.348 5.5a6.002 6.002 0 0 1 0 6.24l-3.348 5.5a6 6 0 0 1-5.125 2.88H21.472a6 6 0 0 1-5.125-2.88L13 16.62a6 6 0 0 1 0-6.24l3.348-5.5Z" fill="url(#b)"/><path d="M16.347 4.88A6 6 0 0 1 21.472 2h95.257a6 6 0 0 1 5.125 2.88l3.348 5.5a6.002 6.002 0 0 1 0 6.24l-3.348 5.5a6 6 0 0 1-5.125 2.88H21.472a6 6 0 0 1-5.125-2.88L13 16.62a6 6 0 0 1 0-6.24l3.348-5.5Z" fill="url(#c)" fill-opacity=".3"/></g><path d="M18.803 5.564A4.5 4.5 0 0 1 22.587 3.5h93.027a4.5 4.5 0 0 1 3.784 2.064l3.54 5.5a4.5 4.5 0 0 1 0 4.872l-3.54 5.5a4.5 4.5 0 0 1-3.784 2.064H22.587a4.5 4.5 0 0 1-3.784-2.064l-3.54-5.5a4.5 4.5 0 0 1 0-4.872l3.54-5.5Z" fill="url(#d)"/><path d="M18.803 5.564A4.5 4.5 0 0 1 22.587 3.5h93.027a4.5 4.5 0 0 1 3.784 2.064l3.54 5.5a4.5 4.5 0 0 1 0 4.872l-3.54 5.5a4.5 4.5 0 0 1-3.784 2.064H22.587a4.5 4.5 0 0 1-3.784-2.064l-3.54-5.5a4.5 4.5 0 0 1 0-4.872l3.54-5.5Z" fill="url(#e)" fill-opacity=".4"/><path d="M18.803 5.564A4.5 4.5 0 0 1 22.587 3.5h93.027a4.5 4.5 0 0 1 3.784 2.064l3.54 5.5a4.5 4.5 0 0 1 0 4.872l-3.54 5.5a4.5 4.5 0 0 1-3.784 2.064H22.587a4.5 4.5 0 0 1-3.784-2.064l-3.54-5.5a4.5 4.5 0 0 1 0-4.872l3.54-5.5Z" stroke="url(#f)"/><path d="M18.803 5.564A4.5 4.5 0 0 1 22.587 3.5h93.027a4.5 4.5 0 0 1 3.784 2.064l3.54 5.5a4.5 4.5 0 0 1 0 4.872l-3.54 5.5a4.5 4.5 0 0 1-3.784 2.064H22.587a4.5 4.5 0 0 1-3.784-2.064l-3.54-5.5a4.5 4.5 0 0 1 0-4.872l3.54-5.5Z" stroke="url(#g)" stroke-opacity=".3"/><defs><linearGradient id="b" x1="69.101" y1="2" x2="69.101" y2="25" gradientUnits="userSpaceOnUse"><stop stop-color="#E1E1E1"/><stop offset=".09" stop-color="#C8C7C5"/><stop offset=".197" stop-color="#DED9D5"/><stop offset=".323" stop-color="#D3CDCC"/><stop offset=".537" stop-color="#F7F6F3"/><stop offset=".727" stop-color="#D6D4CD"/><stop offset=".842" stop-color="#ADADAD"/><stop offset="1" stop-color="#C7C0BE"/></linearGradient><linearGradient id="c" x1="11.101" y1="13.96" x2="127.05" y2="14.21" gradientUnits="userSpaceOnUse"><stop stop-opacity="0"/><stop offset=".5"/><stop offset="1" stop-opacity="0"/></linearGradient><linearGradient id="d" x1="69.101" y1="3" x2="69.101" y2="24" gradientUnits="userSpaceOnUse"><stop stop-color="#949699"/><stop offset="1" stop-color="#655F5F"/></linearGradient><linearGradient id="f" x1="69.101" y1="3" x2="69.101" y2="24" gradientUnits="userSpaceOnUse"><stop stop-color="#F7F7F7"/><stop offset=".605" stop-color="#C0C0BF"/><stop offset="1" stop-color="#CBCBCB"/></linearGradient><linearGradient id="g" x1="13.101" y1="13.92" x2="125.095" y2="15.585" gradientUnits="userSpaceOnUse"><stop stop-opacity="0"/><stop offset=".5"/><stop offset="1" stop-opacity="0"/></linearGradient><radialGradient id="e" cx="0" cy="0" r="1" gradientUnits="userSpaceOnUse" gradientTransform="matrix(0 18 -58.066 0 69.05 8.5)"><stop offset=".225" stop-opacity=".35"/><stop offset=".91"/></radialGradient><filter id="a" x="8.125" y="0" width="121.952" height="27" filterUnits="userSpaceOnUse" color-interpolation-filters="sRGB"><feFlood flood-opacity="0" result="BackgroundImageFix"/><feColorMatrix in="SourceAlpha" values="0 0 0 0 0 0 0 0 0 0 0 0 0 0 0 0 0 0 127 0" result="hardAlpha"/><feOffset dx="2"/><feGaussianBlur stdDeviation="1"/><feComposite in2="hardAlpha" operator="out"/><feColorMatrix values="0 0 0 0 0 0 0 0 0 0 0 0 0 0 0 0 0 0 0.2 0"/><feBlend in2="BackgroundImageFix" result="effect1_dropShadow_317_7224"/><feColorMatrix in="SourceAlpha" values="0 0 0 0 0 0 0 0 0 0 0 0 0 0 0 0 0 0 127 0" result="hardAlpha"/><feOffset dx="-2"/><feGaussianBlur stdDeviation="1"/><feComposite in2="hardAlpha" operator="out"/><feColorMatrix values="0 0 0 0 0 0 0 0 0 0 0 0 0 0 0 0 0 0 0.2 0"/><feBlend in2="effect1_dropShadow_317_7224" result="effect2_dropShadow_317_7224"/><feBlend in="SourceGraphic" in2="effect2_dropShadow_317_7224" result="shape"/></filter></defs></svg>
