<svg viewBox="0 0 21 14" fill="none" xmlns="http://www.w3.org/2000/svg"><path d="M7.12 3.56c-1.97 0-3.57 1.6-3.57 3.57 0 1.97 1.6 3.57 3.57 3.57 1.97 0 3.57-1.6 3.57-3.57 0-1.97-1.6-3.57-3.57-3.57Z" fill="#fff"/><path fill-rule="evenodd" clip-rule="evenodd" d="M.25 7.12a6.869 6.869 0 1 1 13.74 0c0 3.79-3.08 6.87-6.87 6.87S.25 10.91.25 7.12ZM8.72.992 8.48 2.49c.76.22 1.44.63 1.99 1.16l1.18-.96A6.363 6.363 0 0 0 8.72.992ZM11.3 8.09a4.257 4.257 0 0 0 0-1.92c-.2-.85-.64-1.6-1.26-2.18a4.21 4.21 0 0 0-1.66-.97c-.4-.12-.83-.19-1.27-.19A4.298 4.298 0 0 0 4.2 3.98c-.61.57-1.06 1.32-1.26 2.17a4.257 4.257 0 0 0 0 1.92c.2.85.64 1.6 1.26 2.18.47.44 1.03.78 1.66.97.4.12.83.19 1.27.19a4.298 4.298 0 0 0 2.91-1.15c.61-.57 1.06-1.32 1.26-2.17Zm-5.51-5.6L5.55.99c-1.13.29-2.14.88-2.94 1.69l1.18.96c.56-.53 1.24-.93 2-1.15ZM1.019 8.806A6.27 6.27 0 0 1 .78 7.12c0-.59.09-1.16.24-1.71l1.42.55c-.09.37-.15.76-.15 1.16 0 .4.05.78.14 1.14l-1.411.546Zm4.501 4.442a6.363 6.363 0 0 1-2.93-1.698l1.18-.96c.55.53 1.24.94 1.99 1.16l-.24 1.498Zm3.17 0a6.328 6.328 0 0 0 2.94-1.688l-1.18-.96c-.56.53-1.24.93-2 1.15l.24 1.498Zm3.26-6.128c0 .4-.06.79-.15 1.16h.01l1.42.55c.15-.55.24-1.12.24-1.71 0-.59-.09-1.15-.24-1.69l-1.42.55c.09.36.14.74.14 1.14Z" fill="#fff"/><path d="M18.91 9.13a.67.67 0 0 1 0 1.34h-2.67a.67.67 0 0 1 0-1.34h2.67ZM19.58 6.46a.67.67 0 0 1 0 1.34h-4a.67.67 0 0 1 0-1.34h4ZM18.91 3.79a.67.67 0 0 1 0 1.34h-2.67a.67.67 0 0 1 0-1.34h2.67Z" fill="#fff"/></svg>