<svg width="79" height="73" fill="none" xmlns="http://www.w3.org/2000/svg"><path d="m40.683 62.4-3.046 2.347 1.196-3.777-2.994-2.319 3.735-.013 1.196-3.771 1.109 3.76 3.723-.013-3.038 2.34 1.109 3.761-2.99-2.314Z" fill="#382323" style="mix-blend-mode:multiply" opacity=".5"/><path d="m40.695 61.422-3.048 2.344 1.198-3.777-2.994-2.318 3.733-.014 1.196-3.77 1.109 3.762 3.725-.014-3.04 2.34 1.109 3.762-2.988-2.315Z" fill="url(#a)"/><path d="m40.768 54.908.902 3.057 3.028-.01-2.471 1.901.902 3.057-2.43-1.882-2.476 1.906.973-3.069-2.434-1.883 3.035-.012.971-3.065Z" fill="url(#b)"/><path d="m51.344 57.111-2.326 1.792.912-2.89-2.29-1.776 2.854-.01.914-2.886.848 2.882 2.847-.01-2.322 1.79.848 2.883-2.285-1.775Z" fill="#382323" style="mix-blend-mode:multiply" opacity=".5"/><path d="m51.352 56.36-2.326 1.793.914-2.89-2.29-1.778 2.852-.008.914-2.886.848 2.882 2.848-.008-2.323 1.788.848 2.882-2.285-1.774Z" fill="url(#c)"/><path d="m51.406 51.373.691 2.342 2.315-.006-1.89 1.453.692 2.342-1.858-1.443-1.892 1.457.742-2.348-1.86-1.445 2.319-.006.74-2.346Z" fill="url(#d)"/><linearGradient id="a" x1="40.733" y1="53.936" x2="40.733" y2="65.424" gradientUnits="userSpaceOnUse"><stop stop-color="#959595"/><stop offset=".37" stop-color="#DFDFDF"/><stop offset="1" stop-color="#9D9D9D"/></linearGradient><linearGradient id="b" x1="38.094" y1="57.554" x2="42.683" y2="61.503" gradientUnits="userSpaceOnUse"><stop stop-color="#F0F0F0"/><stop offset=".44" stop-color="#F0F0F0"/><stop offset=".51" stop-color="#F0F0F0"/><stop offset=".52" stop-color="#F0F0F0"/><stop offset=".53" stop-color="#E3E5E7"/><stop offset=".54" stop-color="#CDD4D8"/><stop offset=".55" stop-color="#BCC6CC"/><stop offset=".57" stop-color="#B0BCC4"/><stop offset=".59" stop-color="#A9B7C0"/><stop offset=".66" stop-color="#A8B6BF"/><stop offset="1" stop-color="#DFE7ED"/></linearGradient><linearGradient id="c" x1="51.38" y1="50.629" x2="51.38" y2="59.422" gradientUnits="userSpaceOnUse"><stop stop-color="#959595"/><stop offset=".37" stop-color="#DFDFDF"/><stop offset="1" stop-color="#9D9D9D"/></linearGradient><linearGradient id="d" x1="49.361" y1="53.401" x2="52.875" y2="56.424" gradientUnits="userSpaceOnUse"><stop stop-color="#F0F0F0"/><stop offset=".44" stop-color="#F0F0F0"/><stop offset=".51" stop-color="#F0F0F0"/><stop offset=".52" stop-color="#F0F0F0"/><stop offset=".53" stop-color="#E3E5E7"/><stop offset=".54" stop-color="#CDD4D8"/><stop offset=".55" stop-color="#BCC6CC"/><stop offset=".57" stop-color="#B0BCC4"/><stop offset=".59" stop-color="#A9B7C0"/><stop offset=".66" stop-color="#A8B6BF"/><stop offset="1" stop-color="#DFE7ED"/></linearGradient></svg>
