<svg width="79" height="73" fill="none" xmlns="http://www.w3.org/2000/svg"><path d="M41.905.303h-5.713c-.814.012-2.38.844-4.27 2.027L12.455 14.205c-3.837 2.57-5.566 5.635-5.49 9.12v25.817c-.024 3.721 1.689 6.595 4.864 8.756l21.297 13.168c2.38 1.343 4.612 1.256 6.837 1.095L41.905.303Z" fill="url(#a)"/><path d="M40.59 71.009a8.043 8.043 0 0 1-4.243-1.185l-21.06-12.873c-2.63-1.608-4.238-4.617-4.196-7.85l.34-25.956c.042-3.223 1.727-6.218 4.39-7.814L37.137 2.565a8.151 8.151 0 0 1 4.255-1.17 8.093 8.093 0 0 1 4.22 1.235l20.76 12.957c2.571 1.606 4.149 4.58 4.117 7.763l-.254 25.64c-.032 3.193-1.671 6.176-4.28 7.782l-21.1 12.998a8.226 8.226 0 0 1-4.263 1.237v.002Z" fill="url(#b)"/><path d="M41.328 1.396v.432h.06a7.663 7.663 0 0 1 3.993 1.17l20.76 12.956c2.444 1.525 3.942 4.357 3.912 7.392l-.254 25.64c-.03 3.046-1.592 5.889-4.074 7.419L44.626 69.403a7.807 7.807 0 0 1-4.04 1.173h-.047a7.595 7.595 0 0 1-3.966-1.121L15.514 56.58c-2.502-1.528-4.03-4.392-3.99-7.474l.34-25.956c.04-3.074 1.643-5.928 4.18-7.449L37.358 2.938a7.735 7.735 0 0 1 3.968-1.108v-.432l.002-.002Zm-.002.002a8.164 8.164 0 0 0-4.192 1.169L15.824 15.33c-2.666 1.596-4.35 4.591-4.391 7.814l-.34 25.956c-.042 3.233 1.566 6.242 4.197 7.85l21.059 12.873a8.034 8.034 0 0 0 4.192 1.185h.052a8.239 8.239 0 0 0 4.264-1.237l21.099-12.998c2.609-1.608 4.248-4.589 4.28-7.785l.254-25.64c.032-3.183-1.546-6.156-4.117-7.762L45.612 2.63a8.098 8.098 0 0 0-4.22-1.234h-.064l-.002.002Z" fill="#F9CAD1" opacity=".2"/><path d="M66.891 14.648 46.136 1.691A9.081 9.081 0 0 0 41.403.306a9.143 9.143 0 0 0-4.772 1.31l-21.316 12.76c-2.99 1.79-4.88 5.149-4.927 8.765l-.342 25.962c-.048 3.626 1.756 7.002 4.709 8.804L35.82 70.78a8.992 8.992 0 0 0 4.76 1.328 9.25 9.25 0 0 0 4.783-1.39l21.095-13.002c2.927-1.805 4.763-5.149 4.799-8.73l.252-25.635c.036-3.571-1.733-6.905-4.615-8.706l-.003.004Zm-.709 41.882L44.54 69.864c-2.452 1.51-5.456 1.53-7.878.05L15.057 56.705c-2.444-1.494-3.926-4.265-3.887-7.268l.348-26.626c.04-2.995 1.59-5.752 4.067-7.237L37.447 2.48c2.448-1.466 5.44-1.443 7.849.062l21.297 13.29c2.389 1.49 3.841 4.23 3.811 7.19l-.26 26.302c.074 3.277-1.196 5.522-3.964 7.207h.002Z" fill="url(#c)"/><path d="M41.378 2.323a6.663 6.663 0 0 1 3.473 1.016l21.302 13.288c2.116 1.32 3.413 3.767 3.387 6.387l-.262 26.309v.032c.066 2.884-1.02 4.847-3.523 6.373l-21.647 13.33a6.776 6.776 0 0 1-3.51 1.018 6.599 6.599 0 0 1-3.49-.976L15.51 55.893c-2.164-1.324-3.487-3.8-3.453-6.459l.348-26.62c.033-2.652 1.418-5.115 3.612-6.429l21.86-13.1a6.714 6.714 0 0 1 3.5-.962Zm.01-.927a7.537 7.537 0 0 0-3.94 1.083L15.586 15.575c-2.476 1.483-4.028 4.242-4.068 7.237l-.347 26.626c-.04 3.003 1.442 5.776 3.886 7.268l21.604 13.207a7.438 7.438 0 0 0 3.93 1.098 7.607 7.607 0 0 0 3.948-1.145l21.643-13.334c2.766-1.687 4.038-3.932 3.964-7.207l.26-26.303c.03-2.957-1.422-5.696-3.812-7.189L45.296 2.541a7.463 7.463 0 0 0-3.908-1.143v-.002Z" fill="#633030"/><path d="m12.321 29.143 37.587-22.65-4.898-3.057L12.4 23.04l-.079 6.103Z" fill="url(#d)"/><path d="m12.166 41.042 47.26-28.61-4.879-3.046-42.301 25.547-.08 6.11Z" fill="url(#e)"/><path d="M12.057 49.434a7.71 7.71 0 0 0 .878 3.684l55.67-33.865c-.938-1.79-2.331-2.628-3.97-3.585L12.083 47.566l-.024 1.868h-.002Z" fill="url(#f)"/><path d="M69.509 26.198 18.173 57.52l4.963 3.035 46.313-28.323.06-6.034Z" fill="url(#g)"/><g opacity=".5" fill="#000"><path d="m74.825 48.412-68.435.12c-1.305.003-2.349-1.11-2.33-2.486l.216-16.165c.018-1.373 1.09-2.483 2.394-2.48l68.354.176c1.268.004 2.283 1.102 2.269 2.455l-.151 15.922c-.014 1.356-1.051 2.456-2.319 2.458h.002Z"/><path d="M75.028 27.575c1.267.004 2.283 1.102 2.269 2.455l-.151 15.922c-.014 1.356-1.051 2.456-2.319 2.458l-68.435.12c-1.306.003-2.349-1.11-2.33-2.486l.216-16.164c.018-1.374 1.09-2.483 2.394-2.482l68.354.177h.002Zm.006-.91-68.352-.19c-1.786-.003-3.26 1.521-3.284 3.403l-.219 16.168c-.026 1.885 1.409 3.416 3.197 3.412l68.44-.133c1.736-.004 3.162-1.517 3.18-3.373l.151-15.92c.018-1.852-1.379-3.362-3.113-3.368Z"/><path d="M75.024 27.962c1.065.002 1.921.93 1.911 2.067l-.153 15.924c-.01 1.139-.886 2.068-1.953 2.07l-68.433.115c-1.097 0-1.977-.937-1.961-2.094L4.65 29.88c.016-1.155.92-2.09 2.017-2.088l68.356.17Zm.004-.387L6.674 27.4c-1.303-.004-2.376 1.107-2.394 2.48l-.217 16.165c-.018 1.376 1.026 2.489 2.331 2.487l68.435-.121c1.268-.002 2.307-1.104 2.319-2.457l.151-15.922c.012-1.354-1.003-2.452-2.27-2.456h-.001Z"/></g><path d="M8.834 24.666H3.1c-1.747 0-2.91 1.39-2.949 2.946v17.345c-.03 2.005.962 2.997 2.587 2.981h5.478l.616-23.272h.002Z" fill="url(#h)"/><path d="m74.843 46.586-68.427.095c-1.306 0-2.349-1.111-2.33-2.487l.216-16.162c.018-1.374 1.09-2.483 2.394-2.48l68.348.203c1.266.004 2.283 1.104 2.269 2.455l-.151 15.92c-.014 1.356-1.051 2.456-2.319 2.458v-.002Z" fill="#7C0D15"/><path d="M75.046 25.755c1.265.004 2.283 1.104 2.269 2.456l-.151 15.92c-.014 1.355-1.051 2.455-2.32 2.457l-68.426.095c-1.306 0-2.349-1.111-2.331-2.487l.217-16.162c.017-1.374 1.09-2.483 2.394-2.48l68.348.203v-.002Zm.008-.909L6.71 24.632c-1.787-.006-3.259 1.52-3.285 3.4l-.218 16.164c-.026 1.884 1.408 3.416 3.197 3.412l68.431-.107c1.737-.002 3.163-1.515 3.181-3.37l.151-15.917c.018-1.851-1.379-3.362-3.111-3.368h-.002Z" fill="url(#i)"/><path d="M75.042 26.142c1.065.004 1.921.931 1.911 2.068L76.8 44.13c-.01 1.14-.886 2.067-1.953 2.069l-68.427.09c-1.097 0-1.977-.94-1.961-2.095l.216-16.16c.016-1.153.92-2.09 2.015-2.088l68.35.196h.002Zm.002-.387-68.348-.202c-1.303-.004-2.376 1.105-2.394 2.479l-.217 16.162c-.018 1.376 1.025 2.489 2.33 2.487l68.428-.095c1.268 0 2.307-1.102 2.319-2.457l.15-15.92c.013-1.352-1.002-2.452-2.268-2.456v.002Z" fill="#420917"/><path d="m11.566 32.154 2.565.004-.052 4.033 7.193.006.05-4.027 2.555.004-.135 10.926h-2.556l.054-4.279h-7.193l-.055 4.285h-2.567l.143-10.952h-.002Zm14.995 1.973a2.061 2.061 0 0 1 .554-1.395c.165-.17.358-.306.58-.405.223-.1.452-.147.688-.147l8.719.014c.264 0 .512.054.747.157a1.839 1.839 0 0 1 .985 1.02c.096.234.141.474.14.722l-.082 7.048a2.033 2.033 0 0 1-.55 1.393 1.816 1.816 0 0 1-.577.406c-.22.099-.449.149-.685.149l-8.725.006a1.878 1.878 0 0 1-1.35-.568 1.9 1.9 0 0 1-.39-.61 1.867 1.867 0 0 1-.14-.726l.088-7.066-.002.002Zm9.797 6.348.066-5.667L29.1 34.8l-.07 5.675h7.329Zm5.308-6.423a4.35 4.35 0 0 1 .067-.715c.042-.238.123-.452.242-.645.12-.19.287-.347.503-.466.217-.12.495-.179.837-.177h.16c.342 0 .636.064.885.189.248.125.473.285.675.482l3.66 3.42 3.732-3.41c.206-.197.435-.355.683-.48.248-.123.545-.185.884-.185h.161c.34 0 .616.062.829.18.212.12.375.275.49.467.116.193.19.407.227.643.036.238.054.477.05.713l-.098 9.009H53.13l.084-7.68-3.287 2.978-1.27 1.149-1.243-1.151-3.23-2.985-.087 7.695h-2.535l.104-9.035v.004Zm16.755.113a2.028 2.028 0 0 1 .545-1.386c.16-.17.351-.303.572-.4.218-.098.445-.147.677-.147l9.142.014-.026 2.596-8.4-.008-.014 1.393 7.258.006-.026 2.598h-7.258l-.018 1.642h8.405l-.026 2.598-9.045.006c-.262 0-.508-.052-.74-.155a1.838 1.838 0 0 1-.98-1.016 1.8 1.8 0 0 1-.137-.72l.073-7.021h-.002Z" fill="#000" style="mix-blend-mode:multiply" opacity=".5"/><path d="m11.581 30.832 2.566.004-.052 4.034 7.193.007.05-4.027 2.554.004-.135 10.925h-2.555l.054-4.28-7.193-.004-.056 4.288h-2.565l.143-10.95h-.004Zm14.994 1.977a2.061 2.061 0 0 1 .554-1.395 1.84 1.84 0 0 1 .58-.405c.223-.097.451-.147.688-.147l8.718.016c.264 0 .513.054.747.157a1.839 1.839 0 0 1 .986 1.02c.095.234.14.474.139.723l-.081 7.047c-.005.28-.056.54-.155.779a2.06 2.06 0 0 1-.396.615c-.163.17-.356.306-.576.405a1.66 1.66 0 0 1-.686.149l-8.724.004a1.877 1.877 0 0 1-1.35-.568 1.9 1.9 0 0 1-.39-.61 1.868 1.868 0 0 1-.14-.726l.088-7.066-.002.002Zm9.797 6.35.066-5.667-7.324-.01-.07 5.675h7.326l.002.002Zm5.307-6.42c.002-.237.026-.476.068-.714.041-.238.123-.452.242-.645.12-.19.286-.347.503-.464.216-.12.495-.179.836-.177h.161c.342 0 .636.064.885.189.248.125.472.285.675.482l3.66 3.422 3.73-3.408c.206-.197.432-.355.683-.48a1.96 1.96 0 0 1 .884-.185h.161c.34 0 .616.061.828.18.213.12.376.274.491.467.116.193.189.407.227.643.036.238.053.476.05.713l-.096 9.009h-2.523l.083-7.68-3.286 2.976-1.27 1.149-1.244-1.151L44.2 34.08l-.088 7.693h-2.535l.103-9.033Zm16.756.118a2.029 2.029 0 0 1 .544-1.386c.161-.17.352-.303.572-.4a1.62 1.62 0 0 1 .678-.145l9.14.018-.026 2.596-8.4-.012-.015 1.393 7.257.008-.026 2.598-7.258-.004-.018 1.642h8.402l-.025 2.6-9.045.004c-.262 0-.509-.052-.741-.155a1.839 1.839 0 0 1-.98-1.016 1.8 1.8 0 0 1-.137-.72l.074-7.02.004-.001Z" fill="url(#j)"/><path d="m11.581 30.832 2.566.004-.052 4.034 7.193.007.05-4.027 2.554.004-.135 10.925h-2.555l.054-4.28-7.193-.004-.056 4.288h-2.565l.143-10.95h-.004Zm14.994 1.977a2.061 2.061 0 0 1 .554-1.395 1.84 1.84 0 0 1 .58-.405c.223-.097.451-.147.688-.147l8.718.016c.264 0 .513.054.747.157a1.839 1.839 0 0 1 .986 1.02c.095.234.14.474.139.723l-.081 7.047c-.005.28-.056.54-.155.779a2.06 2.06 0 0 1-.396.615c-.163.17-.356.306-.576.405a1.66 1.66 0 0 1-.686.149l-8.724.004a1.877 1.877 0 0 1-1.35-.568 1.9 1.9 0 0 1-.39-.61 1.868 1.868 0 0 1-.14-.726l.088-7.066-.002.002Zm9.797 6.35.066-5.667-7.324-.01-.07 5.675h7.326l.002.002Zm5.307-6.42c.002-.237.026-.476.068-.714.041-.238.123-.452.242-.645.12-.19.286-.347.503-.464.216-.12.495-.179.836-.177h.161c.342 0 .636.064.885.189.248.125.472.285.675.482l3.66 3.422 3.73-3.408c.206-.197.432-.355.683-.48a1.96 1.96 0 0 1 .884-.185h.161c.34 0 .616.061.828.18.213.12.376.274.491.467.116.193.189.407.227.643.036.238.053.476.05.713l-.096 9.009h-2.523l.083-7.68-3.286 2.976-1.27 1.149-1.244-1.151L44.2 34.08l-.088 7.693h-2.535l.103-9.033Zm16.756.118a2.029 2.029 0 0 1 .544-1.386c.161-.17.352-.303.572-.4a1.62 1.62 0 0 1 .678-.145l9.14.018-.026 2.596-8.4-.012-.015 1.393 7.257.008-.026 2.598-7.258-.004-.018 1.642h8.402l-.025 2.6-9.045.004c-.262 0-.509-.052-.741-.155a1.839 1.839 0 0 1-.98-1.016 1.8 1.8 0 0 1-.137-.72l.074-7.02.004-.001Z" stroke="url(#k)" stroke-width=".268" stroke-miterlimit="10"/><path d="m6.69 25.553.004.877 68.348.203c.348 0 .681.144.938.402.294.298.46.723.457 1.168l-.151 15.92c-.008.875-.656 1.588-1.443 1.588l-68.43.095c-.369 0-.72-.15-.989-.421a1.628 1.628 0 0 1-.459-1.179l.217-16.162c.012-.89.69-1.614 1.51-1.614v-.877H6.69Zm.002 0c-1.301 0-2.368 1.107-2.388 2.479l-.217 16.162c-.018 1.376 1.023 2.487 2.327 2.487h.004l68.427-.095c1.268 0 2.307-1.102 2.319-2.457l.15-15.92c.013-1.352-1.002-2.452-2.268-2.456l-68.348-.202h-.006v.002Z" fill="#3A0F0F"/><defs><linearGradient id="a" x1="24.434" y1="72.253" x2="24.434" y2=".303" gradientUnits="userSpaceOnUse"><stop offset=".04" stop-color="#7E7E7E"/><stop offset=".18" stop-color="#6E6E6E"/><stop offset=".24" stop-color="#535353"/><stop offset=".31" stop-color="#363636"/><stop offset=".5" stop-color="#434343"/><stop offset=".7" stop-color="#363636"/><stop offset=".73" stop-color="#666"/><stop offset=".77" stop-color="#C9C9C9"/><stop offset=".79" stop-color="#C7C7C7"/><stop offset=".92" stop-color="#BFBFBF"/></linearGradient><linearGradient id="b" x1="66.808" y1="35.88" x2="16.14" y2="36.512" gradientUnits="userSpaceOnUse"><stop stop-color="#D32D35"/><stop offset=".45" stop-color="#70050D"/><stop offset="1" stop-color="#A11921"/></linearGradient><linearGradient id="c" x1="16.893" y1="12.389" x2="64.495" y2="60.042" gradientUnits="userSpaceOnUse"><stop offset=".04" stop-color="#A0A0A0"/><stop offset=".13" stop-color="#E2E2E2"/><stop offset=".18" stop-color="#fff"/><stop offset=".28" stop-color="#DDD"/><stop offset=".42" stop-color="#B2B2B2"/><stop offset=".53" stop-color="#979797"/><stop offset=".59" stop-color="#8E8E8E"/><stop offset=".62" stop-color="#BABABA"/><stop offset=".66" stop-color="#DFDFDF"/><stop offset=".69" stop-color="#F6F6F6"/><stop offset=".7" stop-color="#fff"/><stop offset=".82" stop-color="#C2C2C2"/><stop offset=".92" stop-color="#8E8E8E"/></linearGradient><linearGradient id="d" x1="31.116" y1="3.436" x2="31.116" y2="29.143" gradientUnits="userSpaceOnUse"><stop stop-color="#959595"/><stop offset=".36" stop-color="#F7F7F7"/><stop offset="1" stop-color="#828282"/></linearGradient><linearGradient id="e" x1="35.797" y1="9.386" x2="35.797" y2="41.042" gradientUnits="userSpaceOnUse"><stop stop-color="#959595"/><stop offset=".36" stop-color="#F7F7F7"/><stop offset="1" stop-color="#828282"/></linearGradient><linearGradient id="f" x1="40.331" y1="15.668" x2="40.331" y2="53.118" gradientUnits="userSpaceOnUse"><stop stop-color="#959595"/><stop offset=".36" stop-color="#F7F7F7"/><stop offset="1" stop-color="#828282"/></linearGradient><linearGradient id="g" x1="43.84" y1="26.198" x2="43.84" y2="60.555" gradientUnits="userSpaceOnUse"><stop stop-color="#959595"/><stop offset=".36" stop-color="#F7F7F7"/><stop offset="1" stop-color="#828282"/></linearGradient><linearGradient id="h" x1="4.492" y1="47.938" x2="4.492" y2="24.666" gradientUnits="userSpaceOnUse"><stop offset=".04" stop-color="#363636"/><stop offset=".22" stop-color="#636363"/><stop offset=".59" stop-color="#6C6C6C"/><stop offset=".71" stop-color="#888"/><stop offset=".84" stop-color="#9F9F9F"/><stop offset=".92" stop-color="#A8A8A8"/></linearGradient><linearGradient id="i" x1="17.153" y1="59.626" x2="64.076" y2="12.653" gradientUnits="userSpaceOnUse"><stop stop-color="#B1B1B1"/><stop offset=".25" stop-color="#F8F8F8"/><stop offset=".53" stop-color="#fff"/><stop offset=".82" stop-color="#E5E5E5"/><stop offset="1" stop-color="#A3A3A3"/></linearGradient><linearGradient id="j" x1="40.406" y1="41.785" x2="40.406" y2="30.735" gradientUnits="userSpaceOnUse"><stop stop-color="#F5FAFC"/><stop offset=".44" stop-color="#95A0A6"/><stop offset=".45" stop-color="#fff"/></linearGradient><linearGradient id="k" x1="40.406" y1="41.959" x2="40.406" y2="30.56" gradientUnits="userSpaceOnUse"><stop stop-color="#CFD8DA"/><stop offset="1" stop-color="#fff"/></linearGradient></defs></svg>
