<svg xmlns="http://www.w3.org/2000/svg" xmlns:xlink="http://www.w3.org/1999/xlink" viewBox="0 0 274.687 120.288"><defs><linearGradient id="f" x1="87.5" y1="49.056" x2="164.954" y2="49.056" gradientUnits="userSpaceOnUse"><stop offset="0" stop-color="#3c3c3c"/><stop offset=".199" stop-color="#464646"/><stop offset=".635" stop-color="#3c3c3c"/><stop offset=".832" stop-color="#999"/><stop offset="1" stop-color="#595959"/></linearGradient><linearGradient id="g" x1="171.149" y1="42.704" x2="153.381" y2="62.855" gradientUnits="userSpaceOnUse"><stop offset="0" stop-color="#4d4d4d"/><stop offset=".038" stop-color="#626262"/><stop offset=".093" stop-color="#797979"/><stop offset=".153" stop-color="#898989"/><stop offset=".219" stop-color="#939393"/><stop offset=".304" stop-color="#969696"/><stop offset=".393" stop-color="#939393"/><stop offset=".451" stop-color="#8b8b8b"/><stop offset=".501" stop-color="#7c7c7c"/><stop offset=".545" stop-color="#666"/><stop offset=".586" stop-color="#4b4b4b"/><stop offset=".625" stop-color="#2a2a2a"/><stop offset=".661" stop-color="#030303"/><stop offset=".663"/><stop offset=".697" stop-color="#0f0f0f"/><stop offset=".767" stop-color="#282828"/><stop offset=".831" stop-color="#373737"/><stop offset=".883" stop-color="#3c3c3c"/><stop offset=".964" stop-color="#7d7d7d"/><stop offset="1" stop-color="#9b9b9b"/></linearGradient><linearGradient id="a" x1="190.294" y1="55.72" x2="179.695" y2="74.697" gradientUnits="userSpaceOnUse"><stop offset=".186" stop-color="#fff"/><stop offset=".899" stop-color="#4d4d4d"/><stop offset="1" stop-color="#666"/></linearGradient><linearGradient id="h" x1="189.043" y1="56.733" x2="180.467" y2="72.087" xlink:href="#a"/><linearGradient id="i" x1="149.084" y1="-5.799" x2="60.238" y2="147.268" gradientUnits="userSpaceOnUse"><stop offset=".011"/><stop offset=".294" stop-color="#4d4d4d"/><stop offset=".505" stop-color="gray"/><stop offset=".731" stop-color="#4d4d4d"/><stop offset=".832" stop-color="#999"/><stop offset="1" stop-color="#595959"/></linearGradient><linearGradient id="j" x1="161.282" y1="4.772" x2="79.831" y2="74.319" gradientUnits="userSpaceOnUse"><stop offset=".189" stop-color="#c8c8c8"/><stop offset=".328" stop-color="gray"/><stop offset=".387" stop-color="#e6e6e6"/><stop offset="1" stop-color="#1e1e1e"/></linearGradient><clipPath id="c"><path d="M173.873 93.116v2.288c0 4.278-3.93 8.32-10.441 10.446a28.893 28.893 0 0 1-2.975.8c-1.044.222-2.1.387-3.157.5-8.577.952-17.293-1.455-21.535-5.952a10.847 10.847 0 0 1-1.357-1.753 8.573 8.573 0 0 1-.864-1.859 7.2 7.2 0 0 1-.354-2.224v-2.288a7.2 7.2 0 0 0 .354 2.224 8.573 8.573 0 0 0 .864 1.859 10.847 10.847 0 0 0 1.357 1.753c4.243 4.5 12.958 6.9 21.535 5.952a34.084 34.084 0 0 0 3.157-.5 29.1 29.1 0 0 0 2.976-.8c6.51-2.126 10.436-6.168 10.44-10.446Z" fill="none"/></clipPath><clipPath id="d"><path d="M127.771 85.028v2.288c0 4.278-3.93 8.32-10.44 10.446a28.593 28.593 0 0 1-2.976.8c-1.044.222-2.1.387-3.157.5-8.577.952-17.292-1.455-21.535-5.952a10.847 10.847 0 0 1-1.363-1.749 8.621 8.621 0 0 1-.86-1.861 7.194 7.194 0 0 1-.354-2.224v-2.288a7.2 7.2 0 0 0 .355 2.224 8.573 8.573 0 0 0 .864 1.859 10.9 10.9 0 0 0 1.356 1.753c4.243 4.5 12.959 6.9 21.536 5.952a32.527 32.527 0 0 0 3.156-.505 29.1 29.1 0 0 0 2.976-.8c6.513-2.123 10.438-6.165 10.442-10.443Z" fill="none"/></clipPath><clipPath id="k"><path d="M156.484 84.219v2.288c0 4.278-3.93 8.32-10.441 10.447a29.1 29.1 0 0 1-2.976.8c-1.043.221-2.1.386-3.156.5-8.577.953-17.293-1.454-21.536-5.952a10.853 10.853 0 0 1-1.356-1.753 8.573 8.573 0 0 1-.864-1.859 7.194 7.194 0 0 1-.354-2.224v-2.288a7.194 7.194 0 0 0 .354 2.224 8.573 8.573 0 0 0 .864 1.859 10.8 10.8 0 0 0 1.357 1.753c4.242 4.5 12.958 6.905 21.535 5.952a34.137 34.137 0 0 0 3.157-.5 28.894 28.894 0 0 0 2.975-.8c6.511-2.127 10.437-6.166 10.441-10.447Z" fill="none"/></clipPath><clipPath id="l"><path d="M151.227 79.771v2.288c0 4.278-3.929 8.32-10.44 10.446a29.1 29.1 0 0 1-2.976.8c-1.044.222-2.1.387-3.156.5-8.577.952-17.293-1.455-21.536-5.952a10.86 10.86 0 0 1-1.359-1.753 8.545 8.545 0 0 1-.864-1.858 7.2 7.2 0 0 1-.355-2.224V79.73a7.2 7.2 0 0 0 .354 2.224 8.545 8.545 0 0 0 .864 1.858 10.86 10.86 0 0 0 1.356 1.754c4.243 4.5 12.959 6.9 21.536 5.952a34.063 34.063 0 0 0 3.156-.5 29.1 29.1 0 0 0 2.976-.8c6.517-2.127 10.439-6.169 10.444-10.447Z" fill="none"/></clipPath><radialGradient id="b" cx="212.094" cy="3916.708" r="116.653" gradientTransform="matrix(1.177 0 0 .516 -112.369 -1959.234)" gradientUnits="userSpaceOnUse"><stop offset="0" stop-color="#fff"/><stop offset=".027" stop-color="#fafafb" stop-opacity=".961"/><stop offset=".241" stop-color="#d3d3da" stop-opacity=".674"/><stop offset=".441" stop-color="#b3b3bf" stop-opacity=".434"/><stop offset=".623" stop-color="#9a9aaa" stop-opacity=".247"/><stop offset=".783" stop-color="#88889b" stop-opacity=".112"/><stop offset=".914" stop-color="#7d7d91" stop-opacity=".03"/><stop offset="1" stop-color="#79798e" stop-opacity="0"/></radialGradient><radialGradient id="e" cx="380.269" cy="33.372" r="27.434" gradientTransform="matrix(.917 0 0 .917 -217.017 4.948)" gradientUnits="userSpaceOnUse"><stop offset=".115" stop-color="#79798e" stop-opacity="0"/><stop offset=".3" stop-color="#8a8a9c" stop-opacity=".025"/><stop offset=".559" stop-color="#babac5" stop-opacity=".096"/><stop offset=".83" stop-color="#fff" stop-opacity=".2"/></radialGradient></defs><g data-name="Layer 2"><g data-name="Layer 1"><ellipse cx="137.343" cy="60.144" rx="137.343" ry="60.144" opacity=".3" fill="url(#b)"/><ellipse cx="144.974" cy="98.543" rx="20.495" ry="12.334" opacity=".073"/><ellipse cx="145.82" cy="98.249" rx="20.495" ry="12.334" opacity=".145"/><ellipse cx="146.665" cy="97.954" rx="20.495" ry="12.334" opacity=".218"/><ellipse cx="147.511" cy="97.66" rx="20.495" ry="12.334" opacity=".291"/><ellipse cx="148.356" cy="97.366" rx="20.495" ry="12.334" opacity=".364"/><ellipse cx="149.202" cy="97.072" rx="20.495" ry="12.334" opacity=".436"/><ellipse cx="150.047" cy="96.778" rx="20.495" ry="12.334" opacity=".509"/><ellipse cx="150.893" cy="96.484" rx="20.495" ry="12.334" opacity=".582"/><ellipse cx="151.738" cy="96.19" rx="20.495" ry="12.334" opacity=".655"/><ellipse cx="152.584" cy="95.896" rx="20.495" ry="12.334" opacity=".727"/><ellipse cx="153.43" cy="95.602" rx="20.495" ry="12.334" opacity=".8"/><path d="M148.857 85.493c7.118-1.513 15 .667 17.583 4.859s-1.117 8.834-8.235 10.347-15.005-.667-17.582-4.859 1.116-8.834 8.234-10.347Zm9 14.643c6.591-1.4 10.011-5.7 7.625-9.581s-9.691-5.9-16.282-4.5-10.012 5.7-7.625 9.582 9.691 5.9 16.282 4.5" fill="#ddd"/><path d="M149.914 89.616a10.49 10.49 0 0 1 5.191.212 6.817 6.817 0 0 1 2.964 1.775c-.7.23-1.345.418-1.952.569-.255.064-.5.121-.741.172-4.628.984-6.57-.33-8.579-1.365a7.711 7.711 0 0 1 3.117-1.363Z" fill="#ddd"/><path d="M149.2 86.055c6.591-1.4 13.9.618 16.282 4.5s-1.034 8.18-7.625 9.581-13.9-.617-16.282-4.5 1.037-8.18 7.625-9.581Zm5.355 11.075c3.24-.688 5.319-2.79 3.75-5.227-.86.187-1.6.382-2.251.581-3 .924-3.917 1.974-4.176 3.032a6.862 6.862 0 0 0-.061 1.845 11.328 11.328 0 0 0 2.738-.231m-4.644-7.514a7.711 7.711 0 0 0-3.117 1.363c2.009 1.035 3.951 2.349 8.579 1.365a20.8 20.8 0 0 0 .741-.172 27.319 27.319 0 0 0 1.952-.569 6.817 6.817 0 0 0-2.964-1.775 10.49 10.49 0 0 0-5.191-.212" fill="#181818"/><path d="m171.929 89.639-4.232.794a5.857 5.857 0 0 1 .609 1.646l4.414-.3a6.826 6.826 0 0 1-.382 3.942l-4.329-.6a8.107 8.107 0 0 1-2.674 3.322l3.522 1.594a18.741 18.741 0 0 1-4.588 2.532l-2.469-2.178a20.236 20.236 0 0 1-2.523.793l1.723 2.408c-.108.027-.216.054-.325.079a26.736 26.736 0 0 1-1.25.261l-1.355-2.493a24.007 24.007 0 0 1-2.794.357l.522 2.6a32.508 32.508 0 0 1-6.7-.229l1.018-2.548a20.769 20.769 0 0 1-5.641-1.579l-2.707 2.072a17.132 17.132 0 0 1-4.305-2.7l3.7-1.451a8.812 8.812 0 0 1-1.351-1.486l-4.1 1.011a7.617 7.617 0 0 1-.261-.383l-.088-.14c-.1-.173-.165-.289-.229-.405l4.232-.8a5.819 5.819 0 0 1-.61-1.646l-4.413.305a6.836 6.836 0 0 1 .382-3.942l4.328.6a8.1 8.1 0 0 1 2.676-3.319l-3.523-1.6a18.777 18.777 0 0 1 4.588-2.531l2.469 2.178a20.167 20.167 0 0 1 2.522-.794l-1.717-2.409c.145-.037.293-.072.442-.106l.2-.047.238-.051c.294-.061.491-.1.688-.135l1.354 2.493a24 24 0 0 1 2.795-.357l-.522-2.6a32.421 32.421 0 0 1 6.695.229l-1.018 2.548a20.882 20.882 0 0 1 5.644 1.578l2.7-2.072a17.189 17.189 0 0 1 4.305 2.7l-3.7 1.451a8.925 8.925 0 0 1 1.35 1.486l4.1-1.008a7.39 7.39 0 0 1 .347.521c.097.139.171.27.243.409ZM158.205 100.7c7.118-1.513 10.812-6.154 8.235-10.347s-10.465-6.372-17.583-4.859-10.812 6.154-8.234 10.347 10.464 6.372 17.582 4.859" fill="#181818"/><path d="M171.3 87.277a10.919 10.919 0 0 1 1.361 1.753 8.575 8.575 0 0 1 .86 1.859c1.628 5.053-2.452 10.18-10.085 12.673a29.1 29.1 0 0 1-2.976.8c-1.044.222-2.1.387-3.157.5-8.577.952-17.292-1.455-21.535-5.952a10.847 10.847 0 0 1-1.357-1.753 8.573 8.573 0 0 1-.864-1.859c-1.627-5.051 2.455-10.18 10.086-12.673a29.123 29.123 0 0 1 2.977-.8 32.61 32.61 0 0 1 3.155-.506c8.578-.946 17.29 1.461 21.535 5.958Zm.632 2.362a6.93 6.93 0 0 0-.23-.405q-.081-.133-.168-.264a7.39 7.39 0 0 0-.179-.257l-4.1 1.008a8.925 8.925 0 0 0-1.35-1.486l3.7-1.451a17.189 17.189 0 0 0-4.305-2.7l-2.7 2.072a20.882 20.882 0 0 0-5.644-1.578l1.018-2.548a32.421 32.421 0 0 0-6.695-.229l.522 2.6a24 24 0 0 0-2.795.357l-1.366-2.498c-.2.038-.394.074-.592.115-.174.036-.251.053-.328.07l-.21.048c-.149.034-.3.069-.442.106l1.717 2.415a20.167 20.167 0 0 0-2.522.794l-2.469-2.178a18.777 18.777 0 0 0-4.588 2.531l3.523 1.6a8.1 8.1 0 0 0-2.676 3.319l-4.328-.6a6.836 6.836 0 0 0-.382 3.942l4.413-.305a5.819 5.819 0 0 0 .61 1.646l-4.232.8c.064.116.126.232.2.348s.091.148.12.194l.082.125c.089.132.134.2.181.261l4.1-1.011a8.812 8.812 0 0 0 1.351 1.486l-3.7 1.451a17.132 17.132 0 0 0 4.305 2.7l2.707-2.072a20.769 20.769 0 0 0 5.641 1.579l-1.018 2.548a32.508 32.508 0 0 0 6.7.229l-.522-2.6a24.007 24.007 0 0 0 2.794-.357l1.355 2.493a23.79 23.79 0 0 0 1.136-.235c.223-.052.331-.079.439-.106l-1.721-2.415a20.236 20.236 0 0 0 2.523-.793l2.469 2.178a18.741 18.741 0 0 0 4.588-2.532l-3.522-1.594a8.107 8.107 0 0 0 2.674-3.322l4.329.6a6.826 6.826 0 0 0 .382-3.942l-4.414.3a5.857 5.857 0 0 0-.609-1.646l4.232-.794" fill="#ddd"/><path d="M158.308 91.9c1.569 2.437-.51 4.539-3.75 5.227a11.328 11.328 0 0 1-2.738.231 6.862 6.862 0 0 1 .061-1.845c.259-1.058 1.18-2.108 4.176-3.032a29.88 29.88 0 0 1 2.251-.581Z" fill="#ddd"/><g style="isolation:isolate" clip-path="url(#c)"><path d="M173.873 93.116V95.574v-2.458" fill="#949494"/><path d="M173.871 93.285v2.289a7.178 7.178 0 0 1-.133 1.194v-2.289a7.153 7.153 0 0 0 .132-1.194" fill="#999"/><path d="M173.739 94.479v2.289a7.6 7.6 0 0 1-.336 1.185v-2.288a7.7 7.7 0 0 0 .337-1.186" fill="#9e9e9e"/><path d="M173.4 95.665v2.288a8.625 8.625 0 0 1-.565 1.209v-2.288a8.514 8.514 0 0 0 .565-1.209" fill="#a3a3a3"/><path d="M172.837 96.874v2.288a9.988 9.988 0 0 1-.87 1.289v-2.289a9.979 9.979 0 0 0 .87-1.288" fill="#a8a8a8"/><path d="M171.967 98.162v2.289a12.364 12.364 0 0 1-1.4 1.486v-2.288a12.286 12.286 0 0 0 1.4-1.487" fill="#adadad"/><path d="M170.566 99.649v2.288a17.143 17.143 0 0 1-3.727 2.514v-2.288a17.151 17.151 0 0 0 3.728-2.514" fill="#b3b3b3"/><path d="M166.838 102.163v2.288q-.681.347-1.418.658v-2.288q.738-.312 1.418-.658" fill="#b8b8b8"/><path d="M165.42 102.821v2.288q-.948.4-1.988.741a28.893 28.893 0 0 1-2.975.8l-.08.017v-2.288l.08-.017a29.1 29.1 0 0 0 2.976-.8q1.038-.339 1.987-.741" fill="#b3b3b3"/><path d="M160.377 104.378v2.288c-.916.192-1.84.341-2.766.452v-2.288c.927-.112 1.851-.26 2.766-.452" fill="#adadad"/><path d="M157.611 104.83v2.288l-.311.036q-1 .111-2 .162v-2.288q1-.051 2-.162l.311-.036" fill="#a8a8a8"/><path d="M155.3 105.028v2.288c-.708.036-1.415.05-2.117.042v-2.288q1.054.012 2.118-.042" fill="#a3a3a3"/><path d="M153.179 105.07v2.288a33.987 33.987 0 0 1-2.027-.082v-2.288c.67.047 1.347.075 2.027.082" fill="#9e9e9e"/><path d="M151.152 104.988v2.288q-1.018-.072-2.015-.2v-2.288q1 .131 2.015.2" fill="#999"/><path d="M149.137 104.785v2.288q-1.046-.138-2.059-.338v-2.288q1.012.2 2.059.338" fill="#949494"/><path d="M147.078 104.447v2.288q-1.122-.222-2.193-.519v-2.289q1.07.3 2.193.52" fill="#8f8f8f"/><path d="M144.885 103.927v2.289a26.784 26.784 0 0 1-2.544-.841v-2.288a26.593 26.593 0 0 0 2.544.84" fill="#8a8a8a"/><path d="M142.341 103.087v2.288a17.888 17.888 0 0 1-6.576-4.173 10.847 10.847 0 0 1-1.357-1.753 8.573 8.573 0 0 1-.864-1.859 7.2 7.2 0 0 1-.354-2.224v-2.288a7.2 7.2 0 0 0 .354 2.224 8.573 8.573 0 0 0 .864 1.859 10.847 10.847 0 0 0 1.357 1.753 17.9 17.9 0 0 0 6.576 4.173" fill="#858585"/></g><ellipse cx="105.857" cy="88.984" rx="20.495" ry="12.334" opacity=".073"/><ellipse cx="106.005" cy="88.837" rx="20.495" ry="12.334" opacity=".145"/><ellipse cx="106.152" cy="88.69" rx="20.495" ry="12.334" opacity=".218"/><ellipse cx="106.299" cy="88.543" rx="20.495" ry="12.334" opacity=".291"/><ellipse cx="106.446" cy="88.396" rx="20.495" ry="12.334" opacity=".364"/><ellipse cx="106.593" cy="88.249" rx="20.495" ry="12.334" opacity=".436"/><ellipse cx="106.74" cy="88.102" rx="20.495" ry="12.334" opacity=".509"/><ellipse cx="106.887" cy="87.955" rx="20.495" ry="12.334" opacity=".582"/><ellipse cx="107.034" cy="87.808" rx="20.495" ry="12.334" opacity=".655"/><ellipse cx="107.181" cy="87.661" rx="20.495" ry="12.334" opacity=".727"/><ellipse cx="107.328" cy="87.514" rx="20.495" ry="12.334" opacity=".8"/><path d="M102.755 77.405c7.119-1.513 15.006.667 17.583 4.859s-1.116 8.836-8.238 10.347-15-.667-17.583-4.859 1.12-8.834 8.238-10.347Zm9 14.643c6.591-1.4 10.012-5.7 7.625-9.581s-9.691-5.9-16.282-4.5-10.012 5.7-7.625 9.582 9.691 5.9 16.282 4.5" fill="#ddd"/><path d="M103.812 81.528a10.493 10.493 0 0 1 5.188.212 6.814 6.814 0 0 1 2.963 1.775c-.7.23-1.344.418-1.952.569q-.381.1-.741.172c-4.628.984-6.57-.33-8.578-1.365a7.712 7.712 0 0 1 3.12-1.363Z" fill="#ddd"/><path d="M103.1 77.967c6.591-1.4 13.9.618 16.282 4.5s-1.034 8.18-7.625 9.581-13.895-.617-16.282-4.5 1.035-8.18 7.625-9.581Zm5.356 11.075c3.239-.688 5.318-2.79 3.749-5.227-.86.187-1.6.382-2.251.581-3 .924-3.917 1.974-4.176 3.032a6.945 6.945 0 0 0-.061 1.845 11.332 11.332 0 0 0 2.739-.231m-4.645-7.514a7.712 7.712 0 0 0-3.116 1.363c2.008 1.035 3.95 2.349 8.578 1.365q.36-.077.741-.172a27.169 27.169 0 0 0 1.952-.569A6.814 6.814 0 0 0 109 81.74a10.493 10.493 0 0 0-5.192-.212" fill="#181818"/><path d="m125.827 81.551-4.232.794a5.86 5.86 0 0 1 .61 1.646l4.413-.3a6.826 6.826 0 0 1-.382 3.942l-4.328-.6a8.1 8.1 0 0 1-2.675 3.322l3.522 1.594a18.723 18.723 0 0 1-4.588 2.532L115.7 92.3a20.22 20.22 0 0 1-2.522.793L114.9 95.5c-.108.027-.216.054-.325.079a26.736 26.736 0 0 1-1.25.261l-1.354-2.493a24.024 24.024 0 0 1-2.8.357l.522 2.6a32.5 32.5 0 0 1-6.7-.229l1.018-2.548a20.759 20.759 0 0 1-5.641-1.579l-2.708 2.072a17.168 17.168 0 0 1-4.305-2.7l3.7-1.451a8.8 8.8 0 0 1-1.35-1.486l-4.1 1.011a7.617 7.617 0 0 1-.261-.383l-.088-.14c-.1-.173-.165-.289-.229-.405l4.232-.8a5.815 5.815 0 0 1-.609-1.646l-4.414.3a6.836 6.836 0 0 1 .382-3.942l4.329.6a8.1 8.1 0 0 1 2.676-3.319l-3.524-1.6a18.8 18.8 0 0 1 4.588-2.531l2.469 2.178a20.272 20.272 0 0 1 2.522-.794l-1.717-2.415c.146-.037.293-.072.442-.106l.2-.047.238-.051c.293-.061.491-.1.687-.135l1.354 2.493a24.052 24.052 0 0 1 2.8-.357l-.522-2.6a32.431 32.431 0 0 1 6.7.229l-1.019 2.548a20.879 20.879 0 0 1 5.645 1.578l2.7-2.072a17.207 17.207 0 0 1 4.3 2.7l-3.7 1.451a8.932 8.932 0 0 1 1.351 1.486l4.1-1.008a7.36 7.36 0 0 1 .347.521c.095.154.17.289.241.424ZM112.1 92.611c7.118-1.513 10.812-6.154 8.234-10.347s-10.464-6.372-17.583-4.859-10.811 6.154-8.234 10.347 10.465 6.372 17.583 4.859" fill="#181818"/><path d="M125.2 79.189a10.912 10.912 0 0 1 1.36 1.753 8.575 8.575 0 0 1 .86 1.859c1.629 5.053-2.451 10.18-10.085 12.673a29.1 29.1 0 0 1-2.976.8c-1.044.222-2.1.387-3.156.505-8.577.952-17.293-1.455-21.536-5.952a10.9 10.9 0 0 1-1.356-1.753 8.573 8.573 0 0 1-.864-1.859c-1.627-5.051 2.455-10.18 10.085-12.673a29.123 29.123 0 0 1 2.977-.8q1.566-.332 3.156-.506c8.576-.951 17.288 1.456 21.535 5.953Zm.631 2.362a6.909 6.909 0 0 0-.398-.669 9.038 9.038 0 0 0-.178-.257l-4.1 1.008a8.932 8.932 0 0 0-1.351-1.486l3.7-1.451a17.225 17.225 0 0 0-4.3-2.7l-2.7 2.072a20.879 20.879 0 0 0-5.645-1.578l1.019-2.548a32.431 32.431 0 0 0-6.7-.229l.522 2.6a24.052 24.052 0 0 0-2.8.357l-1.354-2.493c-.2.038-.394.074-.591.115l-.329.07-.21.048c-.149.034-.3.069-.442.106l1.717 2.415a20.272 20.272 0 0 0-2.522.794L96.7 75.547a18.8 18.8 0 0 0-4.6 2.526l3.524 1.6a8.1 8.1 0 0 0-2.676 3.319l-4.329-.6a6.836 6.836 0 0 0-.382 3.942l4.414-.3a5.815 5.815 0 0 0 .609 1.646l-4.232.8c.064.116.126.232.2.348l.12.194.082.125c.089.132.134.2.181.261l4.1-1.011a8.8 8.8 0 0 0 1.35 1.486l-3.7 1.451a17.168 17.168 0 0 0 4.305 2.7l2.708-2.072a20.759 20.759 0 0 0 5.641 1.579L103 96.078a32.5 32.5 0 0 0 6.7.229l-.522-2.6a24.024 24.024 0 0 0 2.8-.357l1.354 2.493a23.14 23.14 0 0 0 1.137-.235c.222-.052.33-.079.438-.106l-1.72-2.415a20.22 20.22 0 0 0 2.513-.787l2.469 2.178a18.723 18.723 0 0 0 4.588-2.532l-3.522-1.594a8.1 8.1 0 0 0 2.675-3.322l4.328.6a6.826 6.826 0 0 0 .382-3.942l-4.413.3a5.86 5.86 0 0 0-.61-1.646l4.232-.794" fill="#ddd"/><path d="M112.206 83.815c1.569 2.437-.51 4.539-3.749 5.227a11.332 11.332 0 0 1-2.739.231 6.945 6.945 0 0 1 .061-1.845c.259-1.058 1.181-2.108 4.176-3.032a27.87 27.87 0 0 1 2.251-.581Z" fill="#ddd"/><g style="isolation:isolate" clip-path="url(#d)"><path d="M127.771 85.028V87.486v-2.458" fill="#949494"/><path d="M127.769 85.2v2.289a7.177 7.177 0 0 1-.132 1.194v-2.289a7.05 7.05 0 0 0 .132-1.194" fill="#999"/><path d="M127.637 86.391v2.289a7.6 7.6 0 0 1-.337 1.185v-2.288a7.586 7.586 0 0 0 .337-1.186" fill="#9e9e9e"/><path d="M127.3 87.577v2.288a8.4 8.4 0 0 1-.565 1.209v-2.288a8.4 8.4 0 0 0 .565-1.209" fill="#a3a3a3"/><path d="M126.735 88.786v2.288a9.988 9.988 0 0 1-.87 1.289v-2.289a9.97 9.97 0 0 0 .869-1.288" fill="#a8a8a8"/><path d="M125.866 90.074v2.289a12.274 12.274 0 0 1-1.4 1.486v-2.288a12.3 12.3 0 0 0 1.4-1.487" fill="#adadad"/><path d="M124.464 91.561v2.288a17.127 17.127 0 0 1-3.728 2.514v-2.288a17.127 17.127 0 0 0 3.728-2.514" fill="#b3b3b3"/><path d="M120.736 94.075v2.288q-.679.346-1.418.658v-2.288q.738-.312 1.418-.658" fill="#b8b8b8"/><path d="M119.318 94.733v2.288q-.948.4-1.987.741a28.593 28.593 0 0 1-2.976.8l-.08.017v-2.288l.08-.017a29.1 29.1 0 0 0 2.976-.8q1.038-.339 1.987-.741" fill="#b3b3b3"/><path d="M114.275 96.29v2.288c-.915.192-1.839.341-2.766.452v-2.288c.926-.112 1.85-.26 2.765-.452" fill="#adadad"/><path d="M111.51 96.742v2.288l-.311.036c-.667.074-1.336.128-2 .162V96.94q1-.051 2-.162l.311-.036" fill="#a8a8a8"/><path d="M109.2 96.94v2.288q-1.062.054-2.118.042v-2.288c.7.008 1.409-.006 2.117-.042" fill="#a3a3a3"/><path d="M107.078 96.982v2.288a33.987 33.987 0 0 1-2.027-.082V96.9q1.007.07 2.028.082" fill="#9e9e9e"/><path d="M105.05 96.9v2.288q-1.019-.072-2.014-.2V96.7c.663.087 1.336.155 2.014.2" fill="#999"/><path d="M103.036 96.7v2.288c-.7-.092-1.385-.2-2.059-.338v-2.288q1.012.2 2.059.338" fill="#949494"/><path d="M100.977 96.359v2.288a30.405 30.405 0 0 1-2.194-.519v-2.289c.713.2 1.446.372 2.194.52" fill="#8f8f8f"/><path d="M98.783 95.839v2.289c-.88-.244-1.73-.525-2.544-.841v-2.288a26.593 26.593 0 0 0 2.544.84" fill="#8a8a8a"/><path d="M96.239 95v2.288a17.888 17.888 0 0 1-6.576-4.173 10.847 10.847 0 0 1-1.363-1.754 8.621 8.621 0 0 1-.86-1.861 7.194 7.194 0 0 1-.354-2.224v-2.288a7.2 7.2 0 0 0 .355 2.224 8.573 8.573 0 0 0 .864 1.859 10.9 10.9 0 0 0 1.356 1.753A17.917 17.917 0 0 0 96.239 95" fill="#858585"/></g><path d="M157.962 27.866a40.383 40.383 0 0 0-6.086-4.642c-13.916-8.031-36.218-8.2-50.432-.525a45.06 45.06 0 0 1 18.748 6l9.189 7.1a45.264 45.264 0 0 1 11.138 18.264 43.637 43.637 0 0 0 11.52-4.508q.536-.31 1.044-.632c.183-.115.356-.233.533-.35.152-.1.308-.2.456-.3.2-.136.387-.275.578-.413.119-.085.241-.169.357-.255.07-.053.136-.106.2-.159.124-.1.249-.191.371-.288l.152-.118c.052-.04.1-.08.154-.12.18-.146.352-.3.524-.443l.013-.011c.1-.083.2-.164.29-.247.171-.151.332-.3.494-.456.093-.087.19-.173.281-.261.153-.149.3-.3.446-.451.091-.093.185-.186.274-.28.137-.146.266-.294.4-.441.089-.1.182-.2.269-.3.121-.142.235-.286.35-.43.088-.109.178-.217.262-.327.106-.138.205-.277.305-.416.085-.118.172-.235.253-.354s.174-.263.259-.4.167-.256.245-.385c.033-.054.063-.109.095-.163l.122-.212c.078-.138.159-.276.232-.414.062-.116.118-.233.176-.35.074-.149.149-.3.218-.448v-.007c.049-.107.094-.215.14-.324.067-.157.134-.314.195-.472.041-.106.078-.211.115-.318.058-.163.116-.326.168-.49l.087-.3v-.011c.056-.2.114-.393.161-.59-.598-2.575-.309-6.344-4.296-9.753Z" opacity=".5" fill="url(#e)"/><path d="M121.355 58.884c2.353-.171 4.712-.284 7.058-.525a50.159 50.159 0 0 0 12.761-3 33.235 33.235 0 0 0 10.842-6.4 16.72 16.72 0 0 0 5.111-7.908 1.276 1.276 0 0 0 .054-.635 18.184 18.184 0 0 0-5.2-9.06 33.1 33.1 0 0 0-9.7-5.948 55.641 55.641 0 0 0-20.916-3.933 58.581 58.581 0 0 0-8.684.584A50.036 50.036 0 0 0 98.8 25.942a29.356 29.356 0 0 0-9.76 6.778 18.3 18.3 0 0 0-3.833 6.057 1.674 1.674 0 0 0-.12.891 21.907 21.907 0 0 0 .813 2.823 17.2 17.2 0 0 0 4.68 6.463 33.418 33.418 0 0 0 10.693 6.316 59.094 59.094 0 0 0 20.082 3.614Zm77.127 29.332a21.869 21.869 0 0 1-4.434-2.175c-15.7-8.4-22.4-12.338-38.1-20.729a3.12 3.12 0 0 1-1.536-3.465.763.763 0 0 0-.454-.921c-1.182-.647-2.341-1.338-3.422-1.962-1.642.882-3.2 1.79-4.82 2.575a49.481 49.481 0 0 1-12.923 4.038 63.805 63.805 0 0 1-10.5.992 60.03 60.03 0 0 1-22.872-3.9 34.726 34.726 0 0 1-10.985-6.595 18.363 18.363 0 0 1-5.274-7.726 12.539 12.539 0 0 1-.68-4.147c.026-2.376-.007-4.755.075-7.13a14.515 14.515 0 0 1 3.111-8.267 26.316 26.316 0 0 1 8.218-6.995 47.432 47.432 0 0 1 14.651-5.288 62.587 62.587 0 0 1 14.655-1.211 57.8 57.8 0 0 1 21.933 4.816 32.112 32.112 0 0 1 9.7 6.5 17.175 17.175 0 0 1 4.769 8.127 16.261 16.261 0 0 1 .356 4.02q-.029 2.377-.044 4.754c-.009 1.071-.044 2.143-.006 3.213a6.266 6.266 0 0 1-.739 3.085 19.856 19.856 0 0 1-3.329 4.573c-.067.071-.131.145-.225.25.71.412 1.387.817 2.079 1.194.092.051.269-.011.389-.061.457-.192.893-.442 1.362-.594a2.253 2.253 0 0 1 1.82.234c14.2 7.623 19.427 10.747 33.633 18.365 2.609 1.4 5.207 2.818 7.829 4.191a2.609 2.609 0 0 1 1.5 1.978.61.61 0 0 0 .074.152v1.409c-.028.08-.064.158-.084.24-.769 3.082-2.2 5.6-5.552 6.454Z" opacity=".073"/><path d="M121.856 58.577c2.354-.171 4.713-.284 7.059-.525a50.169 50.169 0 0 0 12.761-3 33.235 33.235 0 0 0 10.842-6.4 16.715 16.715 0 0 0 5.111-7.908 1.274 1.274 0 0 0 .054-.635 18.181 18.181 0 0 0-5.2-9.059 33.1 33.1 0 0 0-9.7-5.949 55.646 55.646 0 0 0-20.917-3.933 58.568 58.568 0 0 0-8.683.584A50.027 50.027 0 0 0 99.3 25.635a29.356 29.356 0 0 0-9.761 6.778 18.286 18.286 0 0 0-3.833 6.057 1.665 1.665 0 0 0-.12.891 21.7 21.7 0 0 0 .813 2.823 17.17 17.17 0 0 0 4.68 6.463 33.413 33.413 0 0 0 10.692 6.316 59.1 59.1 0 0 0 20.085 3.614Zm77.128 29.332a21.843 21.843 0 0 1-4.434-2.175c-15.7-8.4-22.4-12.338-38.1-20.729a3.118 3.118 0 0 1-1.536-3.464.764.764 0 0 0-.455-.922c-1.182-.647-2.34-1.338-3.421-1.962-1.642.882-3.2 1.79-4.82 2.575a49.493 49.493 0 0 1-12.923 4.038 63.815 63.815 0 0 1-10.5.992 60.027 60.027 0 0 1-22.872-3.9 34.685 34.685 0 0 1-10.986-6.592 18.365 18.365 0 0 1-5.275-7.726 12.563 12.563 0 0 1-.68-4.146c.027-2.377-.006-4.756.075-7.131a14.529 14.529 0 0 1 3.111-8.267 26.357 26.357 0 0 1 8.219-7 47.457 47.457 0 0 1 14.651-5.288 62.582 62.582 0 0 1 14.654-1.211 57.81 57.81 0 0 1 21.934 4.816 32.125 32.125 0 0 1 9.7 6.5 17.183 17.183 0 0 1 4.769 8.127 16.265 16.265 0 0 1 .356 4.02q-.029 2.378-.045 4.754c-.008 1.071-.044 2.144-.006 3.213a6.253 6.253 0 0 1-.739 3.085 19.852 19.852 0 0 1-3.328 4.573c-.067.071-.131.146-.225.25.709.412 1.387.817 2.079 1.194.092.051.269-.01.389-.061.456-.192.893-.442 1.361-.594a2.252 2.252 0 0 1 1.82.234c14.2 7.623 19.428 10.747 33.634 18.365 2.608 1.4 5.207 2.818 7.829 4.191a2.609 2.609 0 0 1 1.5 1.978.593.593 0 0 0 .074.152v1.409c-.028.08-.064.158-.084.24-.769 3.082-2.2 5.6-5.552 6.454Z" opacity=".145"/><path d="M122.358 58.27c2.353-.171 4.713-.284 7.059-.525a50.127 50.127 0 0 0 12.761-3 33.245 33.245 0 0 0 10.842-6.4 16.724 16.724 0 0 0 5.111-7.907 1.276 1.276 0 0 0 .054-.635 18.187 18.187 0 0 0-5.2-9.06 33.109 33.109 0 0 0-9.7-5.949 55.64 55.64 0 0 0-20.916-3.932 58.589 58.589 0 0 0-8.684.583 50.02 50.02 0 0 0-13.878 3.88 29.336 29.336 0 0 0-9.761 6.778 18.27 18.27 0 0 0-3.833 6.057 1.665 1.665 0 0 0-.12.891 21.812 21.812 0 0 0 .812 2.823 17.181 17.181 0 0 0 4.68 6.463 33.418 33.418 0 0 0 10.693 6.316 59.1 59.1 0 0 0 20.08 3.617Zm77.127 29.33a21.809 21.809 0 0 1-4.433-2.175c-15.7-8.4-22.4-12.338-38.1-20.728a3.122 3.122 0 0 1-1.537-3.465.763.763 0 0 0-.454-.921c-1.182-.648-2.34-1.339-3.421-1.963-1.642.882-3.2 1.79-4.82 2.575a49.5 49.5 0 0 1-12.924 4.038 63.685 63.685 0 0 1-10.5.992 60.024 60.024 0 0 1-22.872-3.9 34.7 34.7 0 0 1-10.986-6.595 18.368 18.368 0 0 1-5.274-7.725 12.543 12.543 0 0 1-.68-4.147c.026-2.377-.007-4.756.075-7.131a14.522 14.522 0 0 1 3.111-8.267 26.329 26.329 0 0 1 8.219-6.988 47.434 47.434 0 0 1 14.651-5.29 62.636 62.636 0 0 1 14.654-1.21 57.81 57.81 0 0 1 21.934 4.816 32.137 32.137 0 0 1 9.7 6.5 17.173 17.173 0 0 1 4.768 8.127 16.266 16.266 0 0 1 .357 4.02q-.029 2.378-.045 4.754c-.008 1.071-.044 2.144-.006 3.213a6.264 6.264 0 0 1-.739 3.085 19.856 19.856 0 0 1-3.329 4.573c-.066.071-.131.146-.225.251.71.412 1.387.816 2.079 1.193.093.051.269-.01.389-.061.457-.192.893-.442 1.362-.594a2.253 2.253 0 0 1 1.82.234c14.2 7.623 19.427 10.747 33.633 18.365 2.609 1.4 5.207 2.818 7.83 4.191a2.612 2.612 0 0 1 1.5 1.978.562.562 0 0 0 .074.152v1.41a2.512 2.512 0 0 0-.085.239c-.769 3.082-2.2 5.6-5.551 6.454Z" opacity=".218"/><path d="M122.86 57.964c2.353-.171 4.712-.285 7.059-.526a50.12 50.12 0 0 0 12.76-3 33.235 33.235 0 0 0 10.842-6.4 16.709 16.709 0 0 0 5.111-7.907 1.276 1.276 0 0 0 .054-.635 18.18 18.18 0 0 0-5.2-9.06 33.126 33.126 0 0 0-9.7-5.949 55.64 55.64 0 0 0-20.916-3.932 58.58 58.58 0 0 0-8.684.583 50.036 50.036 0 0 0-13.879 3.88 29.356 29.356 0 0 0-9.762 6.782 18.283 18.283 0 0 0-3.832 6.057 1.665 1.665 0 0 0-.121.891 21.815 21.815 0 0 0 .813 2.823 17.181 17.181 0 0 0 4.68 6.463 33.418 33.418 0 0 0 10.693 6.316 59.119 59.119 0 0 0 20.082 3.614ZM199.987 87.3a21.817 21.817 0 0 1-4.434-2.175c-15.7-8.4-22.4-12.338-38.1-20.728a3.121 3.121 0 0 1-1.536-3.465.763.763 0 0 0-.454-.921c-1.182-.648-2.341-1.339-3.422-1.963-1.642.882-3.2 1.79-4.82 2.575a49.481 49.481 0 0 1-12.923 4.038 63.7 63.7 0 0 1-10.5.992 60.03 60.03 0 0 1-22.872-3.9 34.708 34.708 0 0 1-10.986-6.597 18.368 18.368 0 0 1-5.274-7.725 12.543 12.543 0 0 1-.68-4.147c.026-2.377-.007-4.756.075-7.131a14.509 14.509 0 0 1 3.111-8.266 26.327 26.327 0 0 1 8.218-7 47.434 47.434 0 0 1 14.651-5.287 62.694 62.694 0 0 1 14.659-1.208 57.8 57.8 0 0 1 21.933 4.816 32.131 32.131 0 0 1 9.7 6.5 17.179 17.179 0 0 1 4.769 8.127 16.217 16.217 0 0 1 .356 4.02q-.029 2.378-.044 4.754c-.008 1.071-.044 2.144-.006 3.214a6.26 6.26 0 0 1-.739 3.084 19.856 19.856 0 0 1-3.329 4.573c-.067.072-.131.146-.225.251.71.412 1.387.816 2.079 1.194.092.05.269-.011.389-.062.457-.192.893-.442 1.362-.594a2.253 2.253 0 0 1 1.82.234c14.2 7.623 19.427 10.748 33.633 18.365 2.609 1.4 5.207 2.818 7.829 4.191a2.609 2.609 0 0 1 1.5 1.978.566.566 0 0 0 .075.152V80.6a2.263 2.263 0 0 0-.085.239c-.769 3.082-2.2 5.6-5.552 6.454Z" opacity=".291"/><path d="M123.361 57.657c2.354-.171 4.713-.285 7.059-.526a50.127 50.127 0 0 0 12.761-3 33.217 33.217 0 0 0 10.842-6.4 16.717 16.717 0 0 0 5.111-7.907 1.276 1.276 0 0 0 .054-.635 18.18 18.18 0 0 0-5.2-9.06 33.139 33.139 0 0 0-9.7-5.949 55.664 55.664 0 0 0-20.916-3.932 58.571 58.571 0 0 0-8.684.583 50.027 50.027 0 0 0-13.879 3.88 29.356 29.356 0 0 0-9.761 6.778 18.3 18.3 0 0 0-3.833 6.057 1.665 1.665 0 0 0-.12.891 21.658 21.658 0 0 0 .813 2.823 17.17 17.17 0 0 0 4.68 6.463 33.413 33.413 0 0 0 10.692 6.316 59.1 59.1 0 0 0 20.081 3.618Zm77.128 29.332a21.847 21.847 0 0 1-4.434-2.176c-15.7-8.4-22.4-12.338-38.1-20.728a3.119 3.119 0 0 1-1.536-3.465.763.763 0 0 0-.455-.921c-1.182-.648-2.34-1.339-3.421-1.963-1.642.882-3.2 1.791-4.82 2.575A49.5 49.5 0 0 1 134.8 64.35a63.814 63.814 0 0 1-10.5.991 60.027 60.027 0 0 1-22.872-3.9 34.678 34.678 0 0 1-10.985-6.6 18.362 18.362 0 0 1-5.275-7.725 12.569 12.569 0 0 1-.68-4.147c.027-2.377-.006-4.756.076-7.13a14.515 14.515 0 0 1 3.11-8.267 26.331 26.331 0 0 1 8.219-6.995 47.434 47.434 0 0 1 14.65-5.277 62.694 62.694 0 0 1 14.657-1.215 57.809 57.809 0 0 1 21.931 4.815 32.143 32.143 0 0 1 9.7 6.5 17.187 17.187 0 0 1 4.769 8.127 16.269 16.269 0 0 1 .356 4.021q-.029 2.376-.045 4.753c-.008 1.071-.044 2.144-.006 3.214a6.259 6.259 0 0 1-.738 3.084 19.885 19.885 0 0 1-3.329 4.573c-.067.072-.131.146-.225.251.709.412 1.387.816 2.079 1.194.092.05.269-.011.389-.062.456-.192.893-.442 1.361-.594a2.252 2.252 0 0 1 1.82.234c14.2 7.623 19.428 10.748 33.634 18.365 2.608 1.4 5.207 2.818 7.829 4.191a2.611 2.611 0 0 1 1.5 1.979.627.627 0 0 0 .074.152V80.3a2.506 2.506 0 0 0-.084.239c-.769 3.083-2.2 5.6-5.552 6.455Z" opacity=".364"/><path d="M123.863 57.35c2.353-.171 4.713-.284 7.059-.525a50.171 50.171 0 0 0 12.761-3 33.227 33.227 0 0 0 10.842-6.4 16.724 16.724 0 0 0 5.111-7.907 1.276 1.276 0 0 0 .054-.635 18.187 18.187 0 0 0-5.2-9.06 33.114 33.114 0 0 0-9.7-5.948 55.65 55.65 0 0 0-20.917-3.933 58.7 58.7 0 0 0-8.683.583 50.061 50.061 0 0 0-13.879 3.88 29.338 29.338 0 0 0-9.761 6.779 18.26 18.26 0 0 0-3.833 6.057 1.661 1.661 0 0 0-.12.89 21.812 21.812 0 0 0 .812 2.823 17.192 17.192 0 0 0 4.68 6.464 33.454 33.454 0 0 0 10.693 6.316 59.123 59.123 0 0 0 20.081 3.616Zm77.127 29.332a21.865 21.865 0 0 1-4.433-2.176c-15.7-8.4-22.4-12.338-38.1-20.728a3.121 3.121 0 0 1-1.537-3.465.763.763 0 0 0-.454-.921c-1.182-.648-2.34-1.339-3.421-1.962-1.642.881-3.2 1.79-4.82 2.574a49.5 49.5 0 0 1-12.925 4.039 63.792 63.792 0 0 1-10.5.991 60 60 0 0 1-22.872-3.9 34.683 34.683 0 0 1-10.986-6.595 18.362 18.362 0 0 1-5.274-7.725 12.543 12.543 0 0 1-.68-4.147c.027-2.377-.007-4.756.075-7.13a14.523 14.523 0 0 1 3.111-8.267 26.331 26.331 0 0 1 8.219-7 47.406 47.406 0 0 1 14.651-5.288 62.637 62.637 0 0 1 14.656-1.204 57.829 57.829 0 0 1 21.934 4.816 32.158 32.158 0 0 1 9.7 6.5 17.168 17.168 0 0 1 4.768 8.127 16.257 16.257 0 0 1 .357 4.02q-.028 2.376-.045 4.753c-.008 1.071-.044 2.144-.006 3.214a6.249 6.249 0 0 1-.739 3.084 19.834 19.834 0 0 1-3.329 4.573c-.066.072-.131.146-.225.251.71.412 1.387.816 2.079 1.194.093.05.269-.011.39-.062.456-.192.892-.442 1.361-.594a2.253 2.253 0 0 1 1.82.234c14.2 7.623 19.428 10.748 33.633 18.366 2.609 1.4 5.207 2.817 7.83 4.19a2.613 2.613 0 0 1 1.5 1.979.592.592 0 0 0 .074.152v1.409c-.029.08-.064.157-.085.239-.769 3.083-2.2 5.6-5.551 6.455Z" opacity=".436"/><path d="M124.365 57.043c2.353-.171 4.712-.284 7.059-.525a50.152 50.152 0 0 0 12.76-3 33.237 33.237 0 0 0 10.842-6.4 16.709 16.709 0 0 0 5.111-7.907 1.288 1.288 0 0 0 .055-.635 18.2 18.2 0 0 0-5.2-9.06 33.119 33.119 0 0 0-9.7-5.948 55.641 55.641 0 0 0-20.916-3.933 58.715 58.715 0 0 0-8.684.583 50.1 50.1 0 0 0-13.879 3.88 29.359 29.359 0 0 0-9.761 6.779 18.273 18.273 0 0 0-3.832 6.057 1.662 1.662 0 0 0-.121.89 21.815 21.815 0 0 0 .813 2.823 17.192 17.192 0 0 0 4.68 6.464 33.454 33.454 0 0 0 10.693 6.316 59.118 59.118 0 0 0 20.08 3.616Zm77.127 29.332a21.839 21.839 0 0 1-4.433-2.176c-15.7-8.4-22.4-12.338-38.1-20.728a3.122 3.122 0 0 1-1.536-3.465.763.763 0 0 0-.454-.921c-1.182-.648-2.341-1.339-3.421-1.962-1.642.881-3.2 1.79-4.821 2.574a49.484 49.484 0 0 1-12.927 4.039 63.9 63.9 0 0 1-10.5.992 60.033 60.033 0 0 1-22.873-3.9 34.689 34.689 0 0 1-10.985-6.595 18.362 18.362 0 0 1-5.274-7.725 12.539 12.539 0 0 1-.68-4.147c.026-2.377-.007-4.755.075-7.13a14.509 14.509 0 0 1 3.111-8.267 26.327 26.327 0 0 1 8.218-7 47.406 47.406 0 0 1 14.651-5.288 62.641 62.641 0 0 1 14.657-1.205 57.852 57.852 0 0 1 21.934 4.816 32.142 32.142 0 0 1 9.7 6.5 17.17 17.17 0 0 1 4.769 8.127 16.209 16.209 0 0 1 .356 4.02q-.027 2.376-.044 4.753c-.008 1.072-.044 2.144-.006 3.214a6.26 6.26 0 0 1-.739 3.084 19.834 19.834 0 0 1-3.329 4.573c-.067.072-.131.146-.225.251.71.412 1.387.816 2.079 1.194.092.05.269-.011.389-.062.457-.192.893-.441 1.362-.594a2.257 2.257 0 0 1 1.82.234c14.2 7.623 19.427 10.748 33.633 18.366 2.609 1.4 5.207 2.817 7.829 4.19a2.613 2.613 0 0 1 1.5 1.979.6.6 0 0 0 .075.152v1.409a2.435 2.435 0 0 0-.085.239c-.769 3.083-2.2 5.6-5.552 6.455Z" opacity=".509"/><path d="M124.867 56.736c2.353-.171 4.712-.284 7.058-.525a50.159 50.159 0 0 0 12.761-3 33.22 33.22 0 0 0 10.842-6.4 16.717 16.717 0 0 0 5.111-7.907 1.276 1.276 0 0 0 .054-.635 18.184 18.184 0 0 0-5.2-9.06 33.114 33.114 0 0 0-9.7-5.948 55.645 55.645 0 0 0-20.916-3.933 58.706 58.706 0 0 0-8.684.583 50.1 50.1 0 0 0-13.879 3.88 29.373 29.373 0 0 0-9.761 6.779 18.276 18.276 0 0 0-3.833 6.057 1.663 1.663 0 0 0-.12.891 21.847 21.847 0 0 0 .813 2.822 17.181 17.181 0 0 0 4.68 6.464 33.413 33.413 0 0 0 10.692 6.316 59.128 59.128 0 0 0 20.082 3.616Zm77.127 29.332a21.921 21.921 0 0 1-4.434-2.175c-15.7-8.4-22.4-12.338-38.1-20.729a3.121 3.121 0 0 1-1.536-3.465.764.764 0 0 0-.455-.921c-1.182-.648-2.34-1.338-3.421-1.962-1.642.882-3.2 1.79-4.82 2.574a49.458 49.458 0 0 1-12.928 4.039 63.815 63.815 0 0 1-10.5.992 60.028 60.028 0 0 1-22.872-3.9 34.7 34.7 0 0 1-10.985-6.594 18.365 18.365 0 0 1-5.271-7.727 12.565 12.565 0 0 1-.68-4.147c.027-2.377-.006-4.755.076-7.13a14.518 14.518 0 0 1 3.11-8.267 26.331 26.331 0 0 1 8.222-6.992 47.432 47.432 0 0 1 14.651-5.288 62.641 62.641 0 0 1 14.649-1.212 57.847 57.847 0 0 1 21.933 4.816 32.146 32.146 0 0 1 9.7 6.5 17.175 17.175 0 0 1 4.769 8.127 16.261 16.261 0 0 1 .356 4.02q-.029 2.376-.044 4.753c-.009 1.072-.045 2.144-.007 3.214a6.248 6.248 0 0 1-.738 3.084 19.834 19.834 0 0 1-3.329 4.573c-.067.072-.131.146-.225.251.709.412 1.387.816 2.079 1.194.092.05.269-.011.389-.061.456-.193.893-.442 1.361-.6a2.257 2.257 0 0 1 1.82.235c14.2 7.622 19.428 10.747 33.634 18.365 2.608 1.4 5.207 2.818 7.829 4.19a2.613 2.613 0 0 1 1.5 1.979.627.627 0 0 0 .074.152v1.409c-.028.08-.064.158-.084.239-.769 3.083-2.2 5.6-5.552 6.455Z" opacity=".582"/><path d="M125.368 56.429c2.354-.171 4.713-.284 7.059-.525a50.169 50.169 0 0 0 12.761-3 33.245 33.245 0 0 0 10.842-6.4 16.727 16.727 0 0 0 5.111-7.908 1.276 1.276 0 0 0 .054-.635 18.184 18.184 0 0 0-5.2-9.06 33.114 33.114 0 0 0-9.7-5.948 55.65 55.65 0 0 0-20.917-3.933 58.7 58.7 0 0 0-8.683.583 50.063 50.063 0 0 0-13.879 3.881 29.346 29.346 0 0 0-9.761 6.778 18.286 18.286 0 0 0-3.833 6.057 1.665 1.665 0 0 0-.12.891 21.9 21.9 0 0 0 .812 2.823 17.2 17.2 0 0 0 4.68 6.463 33.418 33.418 0 0 0 10.693 6.316 59.123 59.123 0 0 0 20.081 3.617ZM202.5 85.761a21.843 21.843 0 0 1-4.434-2.175c-15.7-8.4-22.4-12.338-38.1-20.729a3.121 3.121 0 0 1-1.537-3.465.763.763 0 0 0-.454-.921c-1.182-.647-2.34-1.338-3.421-1.962-1.642.882-3.2 1.79-4.82 2.575a49.5 49.5 0 0 1-12.934 4.038 63.815 63.815 0 0 1-10.5.992 60.043 60.043 0 0 1-22.872-3.9 34.7 34.7 0 0 1-10.985-6.595 18.365 18.365 0 0 1-5.269-7.719 12.539 12.539 0 0 1-.68-4.147c.027-2.377-.006-4.755.075-7.13a14.529 14.529 0 0 1 3.111-8.267 26.331 26.331 0 0 1 8.219-7 47.432 47.432 0 0 1 14.651-5.288 62.637 62.637 0 0 1 14.65-1.211 57.83 57.83 0 0 1 21.934 4.817 32.137 32.137 0 0 1 9.7 6.5 17.173 17.173 0 0 1 4.776 8.126 16.262 16.262 0 0 1 .357 4.02q-.029 2.376-.045 4.754c-.008 1.071-.044 2.143-.006 3.213a6.249 6.249 0 0 1-.739 3.084 19.838 19.838 0 0 1-3.328 4.573c-.067.072-.132.146-.226.251.71.412 1.388.817 2.079 1.194.093.051.269-.011.39-.061.456-.193.892-.442 1.361-.594a2.252 2.252 0 0 1 1.82.234c14.2 7.622 19.428 10.747 33.633 18.365 2.609 1.4 5.207 2.818 7.83 4.191a2.612 2.612 0 0 1 1.5 1.978.627.627 0 0 0 .074.152v1.409c-.029.08-.064.158-.085.24-.768 3.082-2.2 5.6-5.551 6.454Z" opacity=".655"/><path d="M125.87 56.122c2.353-.171 4.713-.284 7.059-.525a50.169 50.169 0 0 0 12.761-3 33.24 33.24 0 0 0 10.841-6.4 16.708 16.708 0 0 0 5.111-7.908 1.277 1.277 0 0 0 .055-.635 18.2 18.2 0 0 0-5.2-9.06 33.106 33.106 0 0 0-9.7-5.948 55.641 55.641 0 0 0-20.916-3.933 58.581 58.581 0 0 0-8.684.584 50.036 50.036 0 0 0-13.879 3.88 29.356 29.356 0 0 0-9.761 6.778 18.283 18.283 0 0 0-3.832 6.057 1.665 1.665 0 0 0-.121.891 21.907 21.907 0 0 0 .813 2.823 17.2 17.2 0 0 0 4.68 6.463 33.418 33.418 0 0 0 10.693 6.316 59.094 59.094 0 0 0 20.08 3.617ZM203 85.454a21.861 21.861 0 0 1-4.433-2.175c-15.7-8.4-22.4-12.338-38.1-20.729a3.121 3.121 0 0 1-1.537-3.465.763.763 0 0 0-.454-.921c-1.182-.647-2.341-1.338-3.421-1.962-1.642.882-3.2 1.79-4.821 2.575a49.481 49.481 0 0 1-12.923 4.038 63.793 63.793 0 0 1-10.5.992 60.032 60.032 0 0 1-22.873-3.9 34.708 34.708 0 0 1-10.988-6.592 18.372 18.372 0 0 1-5.274-7.726A12.539 12.539 0 0 1 87 41.442c.026-2.376-.007-4.755.075-7.13a14.522 14.522 0 0 1 3.111-8.267 26.327 26.327 0 0 1 8.218-7 47.432 47.432 0 0 1 14.651-5.288 62.587 62.587 0 0 1 14.655-1.211 57.814 57.814 0 0 1 21.934 4.816 32.12 32.12 0 0 1 9.7 6.5A17.175 17.175 0 0 1 164.112 32a16.262 16.262 0 0 1 .357 4.02q-.029 2.377-.045 4.754c-.008 1.071-.044 2.143-.006 3.213a6.264 6.264 0 0 1-.739 3.085 19.856 19.856 0 0 1-3.329 4.573c-.067.071-.131.145-.225.25.71.412 1.387.817 2.079 1.194.093.051.269-.011.389-.061.457-.192.893-.442 1.362-.594a2.253 2.253 0 0 1 1.82.234c14.2 7.623 19.427 10.747 33.633 18.365 2.609 1.4 5.207 2.818 7.829 4.191a2.613 2.613 0 0 1 1.5 1.978.547.547 0 0 0 .074.152v1.406a2.363 2.363 0 0 0-.085.24c-.769 3.082-2.2 5.6-5.552 6.454Z" opacity=".727"/><path d="M126.372 55.815c2.353-.171 4.712-.284 7.058-.525a50.159 50.159 0 0 0 12.761-3 33.235 33.235 0 0 0 10.842-6.4 16.715 16.715 0 0 0 5.111-7.908 1.274 1.274 0 0 0 .054-.635 18.181 18.181 0 0 0-5.2-9.059 33.1 33.1 0 0 0-9.7-5.949 55.641 55.641 0 0 0-20.916-3.933 58.581 58.581 0 0 0-8.684.584 50.036 50.036 0 0 0-13.879 3.88 29.356 29.356 0 0 0-9.761 6.778 18.3 18.3 0 0 0-3.833 6.057 1.665 1.665 0 0 0-.12.891 21.861 21.861 0 0 0 .813 2.823 17.181 17.181 0 0 0 4.68 6.463 33.413 33.413 0 0 0 10.691 6.318 59.1 59.1 0 0 0 20.083 3.615ZM203.5 85.147a21.817 21.817 0 0 1-4.434-2.175c-15.7-8.4-22.4-12.338-38.1-20.728a3.121 3.121 0 0 1-1.536-3.465.765.765 0 0 0-.455-.922c-1.182-.647-2.34-1.338-3.421-1.962-1.642.882-3.2 1.79-4.82 2.575a49.481 49.481 0 0 1-12.923 4.038 63.7 63.7 0 0 1-10.5.992 60.027 60.027 0 0 1-22.872-3.9 34.708 34.708 0 0 1-10.985-6.595 18.365 18.365 0 0 1-5.275-7.726 12.585 12.585 0 0 1-.68-4.146c.027-2.377-.006-4.756.076-7.131a14.52 14.52 0 0 1 3.11-8.267 26.357 26.357 0 0 1 8.219-7 47.457 47.457 0 0 1 14.651-5.288 62.64 62.64 0 0 1 14.655-1.211 57.8 57.8 0 0 1 21.933 4.816 32.112 32.112 0 0 1 9.7 6.5 17.175 17.175 0 0 1 4.769 8.127 16.265 16.265 0 0 1 .356 4.02q-.029 2.378-.044 4.754c-.009 1.071-.045 2.144-.006 3.213a6.264 6.264 0 0 1-.739 3.085 19.856 19.856 0 0 1-3.329 4.573c-.067.071-.131.146-.225.25.71.413 1.387.817 2.079 1.194.092.051.269-.01.389-.061.457-.192.893-.442 1.361-.594a2.255 2.255 0 0 1 1.821.234c14.2 7.623 19.427 10.747 33.633 18.365 2.608 1.4 5.207 2.818 7.829 4.191a2.609 2.609 0 0 1 1.5 1.978.593.593 0 0 0 .074.152v1.409c-.028.08-.064.158-.084.24-.769 3.082-2.2 5.6-5.552 6.454Z" opacity=".8"/><path d="m164.954 35.337-.058 8.979c0 2.471-3.765 8.276-11.245 12.628a38.22 38.22 0 0 1-2.985 1.562 50.648 50.648 0 0 1-11.633 3.761 65.17 65.17 0 0 1-15.733 1.175 64.06 64.06 0 0 1-7.817-.828 50.706 50.706 0 0 1-15.83-5.251c-.248-.145-.5-.279-.735-.419a28.362 28.362 0 0 1-7.089-5.6A15.471 15.471 0 0 1 87.5 41.2c.024-6.027.041.788.065-6.6a15.419 15.419 0 0 0 4.263 10.245 28.441 28.441 0 0 0 7.157 5.678c.22.127.443.251.667.374a50.561 50.561 0 0 0 15.83 5.293 64.573 64.573 0 0 0 7.817.828 65.4 65.4 0 0 0 15.734-1.154 50.753 50.753 0 0 0 11.633-3.747q1.583-.742 3.047-1.594c7.25-4.211 10.99-9.675 11.241-15.188" fill="url(#f)"/><path d="M158.385 50.314a1.558 1.558 0 0 0-1.574.151 4.865 4.865 0 0 0-2.206 3.823 1.54 1.54 0 0 0 .646 1.416l8.062 4.669a1.551 1.551 0 0 1-.643-1.421 4.85 4.85 0 0 1 2.2-3.818 1.567 1.567 0 0 1 1.576-.156Z" fill="url(#g)"/><path d="M166.158 52.317a2.79 2.79 0 0 0-2.819.275l41.978 22.842a2.8 2.8 0 0 1 2.821-.275Z" fill="url(#a)"/><path d="M161.017 54.815a9.075 9.075 0 0 0-.643 1.039 7.848 7.848 0 0 0-.985 3.582v.025a4.347 4.347 0 0 0 .1.923 2.365 2.365 0 0 0 1.049 1.6l41.982 22.833a2.118 2.118 0 0 1-.879-1.047 3.852 3.852 0 0 1-.272-1.487.612.612 0 0 1 0-.1 7.823 7.823 0 0 1 1.022-3.572c.119-.217.242-.425.383-.636a7.747 7.747 0 0 1 2.54-2.542L163.339 52.6a7.561 7.561 0 0 0-2.322 2.215Z" fill="url(#h)"/><path d="M205.317 75.434c2.19-1.263 3.97-.248 3.98 2.267a8.716 8.716 0 0 1-3.951 6.841c-2.19 1.265-3.97.253-3.977-2.264a8.714 8.714 0 0 1 3.948-6.844" fill="#adadad"/><path d="M152.513 18.769a32.376 32.376 0 0 0-.637-.376c-7.117-4.109-16.427-6.164-25.728-6.164-8.72 0-17.431 1.806-24.316 5.417q-.688.361-1.353.747c-6.792 3.949-10.313 9.08-10.538 14.259.036.746-.263 3.48-.087 4.222A18.258 18.258 0 0 1 94.76 28.9a27.948 27.948 0 0 1 5.719-4.32c14.153-8.222 37.163-8.222 51.4-.007a28.058 28.058 0 0 1 6.086 4.642 19.629 19.629 0 0 1 4.368 8.538c.178-.752.219-4.221.259-4.969-.232-5.059-3.592-10.084-10.079-14.015Z" fill="url(#i)"/><path d="M153.537 18.827c-.1-.062-.206-.12-.306-.172a49.073 49.073 0 0 0-14.785-5.238A64.374 64.374 0 0 0 107 15.19a43.213 43.213 0 0 0-8.195 3.637c-.271.158-.532.316-.79.47-11.507 7.089-13.5 17.47-6.027 25.729l.129.142a28.063 28.063 0 0 0 5.9 4.77c.312.2.635.391.968.587A44.032 44.032 0 0 0 107 54.09a64.431 64.431 0 0 0 31.444 1.886 48.576 48.576 0 0 0 14.785-5.18c.166-.089.323-.178.482-.271 15.073-8.755 14.989-22.947-.174-31.698Zm8.73 18.794-.03.109-.029.12c-.017.067-.04.133-.058.2s-.034.115-.05.172c-.029.1-.056.2-.087.3l-.016.052c-.032.1-.068.2-.1.3l-.049.137c-.038.1-.074.211-.114.316l-.015.041c-.041.106-.087.212-.131.317a12.92 12.92 0 0 1-.19.439v.007l-.013.032c-.049.107-.1.213-.156.32-.077.157-.153.313-.236.469-.056.106-.118.211-.177.317l-.046.079-.119.207c-.039.069-.068.12-.105.18-.062.1-.131.205-.2.308l-.042.064c-.084.131-.167.262-.256.391l-.007.013c-.068.1-.142.2-.212.294l-.038.051-.3.412-.006.008c-.072.094-.15.187-.224.28l-.033.041c-.115.143-.228.286-.349.428v.006c-.077.089-.159.178-.238.267-.14.159-.28.318-.428.476-.08.085-.166.169-.248.253-.155.16-.308.319-.47.476-.085.082-.175.162-.262.243-.168.158-.335.317-.512.473-.089.079-.185.157-.277.236l-.012.01-.013.011c-.172.148-.344.3-.524.443-.05.041-.1.08-.154.12l-.159.124c-.12.095-.242.188-.364.282l-.2.159c-.115.085-.237.168-.354.253-.184.133-.365.267-.556.4l-.025.017c-.148.1-.3.2-.456.3-.177.117-.35.235-.533.35q-.508.321-1.044.632c-14.145 8.226-37.148 8.226-51.385 0q-.535-.309-1.044-.628c-.089-.055-.173-.112-.261-.168l-.008-.006a27.888 27.888 0 0 1-.719-.47l-.3-.214-.014-.01a26.708 26.708 0 0 1-.614-.436c-.114-.084-.223-.169-.334-.253-.184-.141-.369-.281-.546-.424l-.009-.007-.3-.249-.023-.019q-.25-.207-.491-.415c-.112-.1-.221-.2-.331-.3-.149-.135-.3-.271-.441-.408l-.071-.069-.222-.216-.029-.029a18.507 18.507 0 0 1-.394-.4l-.031-.032c-.085-.09-.17-.179-.253-.269l-.03-.033a17.576 17.576 0 0 1-.347-.388l-.042-.049-.006-.008c-.088-.1-.174-.2-.258-.3l-.3-.371-.08-.1c-.063-.08-.127-.161-.188-.242L92.928 43a15.548 15.548 0 0 1-.247-.343l-.079-.111c-.052-.075-.105-.149-.156-.224-.02-.029-.042-.058-.061-.087-.065-.1-.125-.2-.187-.292-.1-.16-.207-.321-.3-.483-.034-.057-.064-.116-.1-.174-.06-.1-.117-.21-.174-.315-.045-.083-.094-.165-.138-.248-.03-.058-.056-.116-.084-.174l-.093-.19c-.031-.063-.075-.151-.111-.227s-.062-.143-.094-.214c-.056-.126-.112-.252-.165-.378l-.151-.365c-.023-.062-.042-.123-.064-.185-.035-.1-.068-.194-.1-.291l-.02-.056c-.025-.074-.054-.147-.077-.221l-.01-.033c-.022-.07-.042-.14-.062-.21l-.036-.118c-.056-.194-.11-.387-.158-.583a12.188 12.188 0 0 1-.318-2.247c-.285-5.568 3.22-11.187 10.538-15.44 14.153-8.222 37.163-8.222 51.4 0 7.418 4.283 11 9.958 10.713 15.573a13.118 13.118 0 0 1-.327 2.257Z" fill="url(#j)"/><ellipse cx="133.835" cy="89.278" rx="20.495" ry="12.334" opacity=".073"/><ellipse cx="134.055" cy="89.021" rx="20.495" ry="12.334" opacity=".145"/><ellipse cx="134.276" cy="88.764" rx="20.495" ry="12.334" opacity=".218"/><ellipse cx="134.496" cy="88.506" rx="20.495" ry="12.334" opacity=".291"/><ellipse cx="134.717" cy="88.249" rx="20.495" ry="12.334" opacity=".364"/><ellipse cx="134.938" cy="87.992" rx="20.495" ry="12.334" opacity=".436"/><ellipse cx="135.158" cy="87.734" rx="20.495" ry="12.334" opacity=".509"/><ellipse cx="135.379" cy="87.477" rx="20.495" ry="12.334" opacity=".582"/><ellipse cx="135.599" cy="87.219" rx="20.495" ry="12.334" opacity=".655"/><ellipse cx="135.82" cy="86.962" rx="20.495" ry="12.334" opacity=".727"/><ellipse cx="136.04" cy="86.705" rx="20.495" ry="12.334" opacity=".8"/><path d="M131.468 76.6c7.118-1.513 15.005.667 17.582 4.859s-1.116 8.834-8.234 10.347-15-.667-17.582-4.859 1.116-8.838 8.234-10.347Zm9 14.644c6.591-1.4 10.012-5.7 7.626-9.582s-9.691-5.9-16.282-4.5-10.012 5.7-7.626 9.582 9.691 5.9 16.282 4.5" fill="#ddd"/><path d="M132.524 80.72a10.482 10.482 0 0 1 5.192.211 6.833 6.833 0 0 1 2.964 1.775c-.7.23-1.345.418-1.952.57q-.382.094-.741.171c-4.628.984-6.57-.33-8.579-1.365a7.7 7.7 0 0 1 3.116-1.362Z" fill="#ddd"/><path d="M131.814 77.158c6.591-1.4 13.9.618 16.282 4.5s-1.035 8.181-7.626 9.582-13.895-.618-16.282-4.5 1.035-8.181 7.626-9.582Zm5.355 11.076c3.24-.689 5.318-2.791 3.749-5.228-.859.187-1.6.382-2.25.581-3 .924-3.917 1.974-4.176 3.032a6.863 6.863 0 0 0-.061 1.845 11.38 11.38 0 0 0 2.738-.23m-4.645-7.514a7.7 7.7 0 0 0-3.116 1.362c2.009 1.035 3.951 2.349 8.579 1.365q.359-.077.741-.171c.607-.152 1.254-.34 1.952-.57a6.833 6.833 0 0 0-2.964-1.775 10.482 10.482 0 0 0-5.192-.211" fill="#181818"/><path d="m154.54 80.742-4.232.8a5.851 5.851 0 0 1 .609 1.645l4.413-.3a6.825 6.825 0 0 1-.381 3.942l-4.329-.6a8.106 8.106 0 0 1-2.675 3.321l3.522 1.594a18.723 18.723 0 0 1-4.588 2.532l-2.468-2.178a20.4 20.4 0 0 1-2.523.794l1.721 2.414a28.246 28.246 0 0 1-1.575.34l-1.355-2.493a24.007 24.007 0 0 1-2.794.357l.522 2.6a32.506 32.506 0 0 1-6.7-.229l1.018-2.548a20.769 20.769 0 0 1-5.641-1.579l-2.707 2.073a17.189 17.189 0 0 1-4.305-2.7l3.7-1.452a8.812 8.812 0 0 1-1.351-1.486l-4.1 1.011a8.46 8.46 0 0 1-.136-.194c-.071-.107-.1-.148-.124-.189s-.06-.094-.088-.14c-.1-.173-.165-.289-.23-.405l4.232-.8a5.846 5.846 0 0 1-.609-1.646l-4.414.3a6.852 6.852 0 0 1 .382-3.942l4.329.6a8.1 8.1 0 0 1 2.676-3.319l-3.524-1.6a18.771 18.771 0 0 1 4.589-2.532l2.468 2.178a20.4 20.4 0 0 1 2.523-.794l-1.716-2.417c.145-.037.293-.072.442-.106l.2-.046.238-.052c.294-.06.491-.1.687-.135l1.355 2.493a24 24 0 0 1 2.8-.357l-.522-2.6a32.421 32.421 0 0 1 6.7.229l-1.018 2.548a20.919 20.919 0 0 1 5.644 1.578l2.7-2.072a17.189 17.189 0 0 1 4.305 2.7l-3.7 1.452a8.812 8.812 0 0 1 1.351 1.486l4.1-1.009a8.485 8.485 0 0 1 .347.521c.085.142.16.277.232.412ZM140.816 91.8c7.118-1.513 10.812-6.154 8.234-10.347s-10.464-6.372-17.582-4.859-10.812 6.154-8.234 10.347 10.466 6.374 17.582 4.859" fill="#181818"/><path d="M153.908 78.381a10.832 10.832 0 0 1 1.361 1.753 8.578 8.578 0 0 1 .86 1.859c1.628 5.053-2.452 10.179-10.086 12.673a28.894 28.894 0 0 1-2.975.8c-1.044.222-2.1.387-3.157.5-8.577.953-17.293-1.454-21.535-5.952a10.8 10.8 0 0 1-1.357-1.753 8.573 8.573 0 0 1-.864-1.859c-1.627-5.051 2.455-10.18 10.085-12.673a28.957 28.957 0 0 1 2.978-.8c1.043-.222 2.1-.389 3.155-.507 8.581-.946 17.292 1.461 21.535 5.959Zm.632 2.361a7.56 7.56 0 0 0-.577-.926l-4.1 1.009a8.812 8.812 0 0 0-1.351-1.486l3.7-1.452a17.189 17.189 0 0 0-4.305-2.7l-2.7 2.072a20.919 20.919 0 0 0-5.644-1.578l1.018-2.548a32.421 32.421 0 0 0-6.7-.229l.522 2.6a24 24 0 0 0-2.8.357l-1.355-2.493c-.2.038-.393.075-.591.115l-.328.07-.21.048c-.149.034-.3.069-.442.106l1.717 2.415a20.4 20.4 0 0 0-2.523.794l-2.468-2.178a18.771 18.771 0 0 0-4.589 2.532l3.524 1.6a8.1 8.1 0 0 0-2.676 3.319l-4.329-.6a6.852 6.852 0 0 0-.382 3.942l4.414-.3a5.846 5.846 0 0 0 .609 1.646l-4.232.8c.065.116.127.232.2.348s.091.148.12.194l.081.125c.09.132.135.2.181.261l4.1-1.011a8.812 8.812 0 0 0 1.351 1.486l-3.7 1.452a17.189 17.189 0 0 0 4.305 2.7l2.707-2.073a20.769 20.769 0 0 0 5.641 1.579l-1.018 2.548a32.506 32.506 0 0 0 6.7.229l-.522-2.6a24.007 24.007 0 0 0 2.794-.357l1.354 2.493a23.856 23.856 0 0 0 1.576-.341l-1.721-2.414a20.4 20.4 0 0 0 2.523-.794l2.468 2.178a18.723 18.723 0 0 0 4.588-2.532l-3.522-1.594a8.106 8.106 0 0 0 2.675-3.321l4.329.6a6.825 6.825 0 0 0 .381-3.942l-4.413.3a5.851 5.851 0 0 0-.609-1.645l4.232-.8" fill="#ddd"/><path d="M140.918 83.006c1.569 2.437-.509 4.539-3.749 5.228a11.38 11.38 0 0 1-2.738.23 6.863 6.863 0 0 1 .061-1.845c.259-1.058 1.18-2.108 4.176-3.032a27.748 27.748 0 0 1 2.25-.581Z" fill="#ddd"/><g style="isolation:isolate" clip-path="url(#k)"><path d="M156.484 84.219V86.677 84.219" fill="#949494"/><path d="M156.482 84.389v2.288a7.061 7.061 0 0 1-.132 1.194v-2.288a7.178 7.178 0 0 0 .133-1.194" fill="#999"/><path d="M156.349 85.583v2.288a7.467 7.467 0 0 1-.337 1.185v-2.288a7.6 7.6 0 0 0 .336-1.185" fill="#9e9e9e"/><path d="M156.013 86.768v2.288a8.507 8.507 0 0 1-.564 1.209v-2.288a8.625 8.625 0 0 0 .565-1.209" fill="#a3a3a3"/><path d="M155.448 87.977v2.288a10.022 10.022 0 0 1-.87 1.289v-2.288a9.988 9.988 0 0 0 .87-1.289" fill="#a8a8a8"/><path d="M154.578 89.266v2.288a12.289 12.289 0 0 1-1.4 1.486v-2.288a12.364 12.364 0 0 0 1.4-1.486" fill="#adadad"/><path d="M153.176 90.752v2.288a17.143 17.143 0 0 1-3.727 2.514v-2.288a17.143 17.143 0 0 0 3.727-2.514" fill="#b3b3b3"/><path d="M149.449 93.266v2.288q-.681.346-1.418.659v-2.289q.736-.312 1.418-.658" fill="#b8b8b8"/><path d="M148.031 93.924v2.289q-.95.4-1.988.741a29.1 29.1 0 0 1-2.976.8l-.08.016v-2.288l.08-.017a28.894 28.894 0 0 0 2.975-.8q1.039-.341 1.988-.742" fill="#b3b3b3"/><path d="M142.988 95.481v2.288c-.915.192-1.839.341-2.765.452v-2.288c.926-.111 1.85-.26 2.766-.452" fill="#adadad"/><path d="M140.222 95.933v2.288l-.311.036q-1 .111-2 .162v-2.288q1-.051 2-.162l.311-.036" fill="#a8a8a8"/><path d="M137.907 96.131v2.288c-.708.036-1.415.05-2.117.042v-2.288c.7.008 1.409-.006 2.117-.042" fill="#a3a3a3"/><path d="M135.79 96.173v2.288q-1.022-.011-2.027-.082v-2.288c.67.047 1.347.075 2.027.082" fill="#9e9e9e"/><path d="M133.763 96.091v2.288q-1.018-.072-2.015-.2v-2.288q1 .13 2.015.2" fill="#999"/><path d="M131.748 95.888v2.288q-1.046-.137-2.059-.338V95.55q1.013.2 2.059.338" fill="#949494"/><path d="M129.689 95.55v2.288q-1.122-.222-2.194-.519v-2.288q1.07.3 2.193.519" fill="#8f8f8f"/><path d="M127.5 95.031v2.288a26.974 26.974 0 0 1-2.544-.841V94.19a26.784 26.784 0 0 0 2.544.841" fill="#8a8a8a"/><path d="M124.952 94.19v2.288a17.9 17.9 0 0 1-6.576-4.173 10.853 10.853 0 0 1-1.356-1.753 8.573 8.573 0 0 1-.864-1.859 7.194 7.194 0 0 1-.354-2.224v-2.288a7.194 7.194 0 0 0 .354 2.224 8.573 8.573 0 0 0 .864 1.859 10.8 10.8 0 0 0 1.357 1.753 17.888 17.888 0 0 0 6.576 4.173" fill="#858585"/></g><ellipse cx="130.048" cy="84.095" rx="20.495" ry="12.334" opacity=".073"/><ellipse cx="130.121" cy="83.911" rx="20.495" ry="12.334" opacity=".145"/><ellipse cx="130.195" cy="83.727" rx="20.495" ry="12.334" opacity=".218"/><ellipse cx="130.269" cy="83.543" rx="20.495" ry="12.334" opacity=".291"/><ellipse cx="130.342" cy="83.359" rx="20.495" ry="12.334" opacity=".364"/><ellipse cx="130.416" cy="83.175" rx="20.495" ry="12.334" opacity=".436"/><ellipse cx="130.489" cy="82.992" rx="20.495" ry="12.334" opacity=".509"/><ellipse cx="130.563" cy="82.808" rx="20.495" ry="12.334" opacity=".582"/><ellipse cx="130.636" cy="82.624" rx="20.495" ry="12.334" opacity=".655"/><ellipse cx="130.71" cy="82.44" rx="20.495" ry="12.334" opacity=".727"/><ellipse cx="130.783" cy="82.256" rx="20.495" ry="12.334" opacity=".8"/><path d="M126.211 72.148c7.118-1.513 15.005.666 17.582 4.859s-1.116 8.834-8.234 10.347-15-.667-17.582-4.86 1.116-8.833 8.234-10.346Zm9 14.643c6.591-1.4 10.012-5.7 7.625-9.581s-9.691-5.9-16.282-4.5-10.011 5.7-7.625 9.581 9.691 5.9 16.282 4.5" fill="#ddd"/><path d="M127.267 76.271a10.482 10.482 0 0 1 5.192.212 6.821 6.821 0 0 1 2.964 1.774c-.7.231-1.345.418-1.952.57q-.382.1-.741.172c-4.629.984-6.57-.33-8.579-1.365a7.7 7.7 0 0 1 3.116-1.363Z" fill="#ddd"/><path d="M126.556 72.71c6.591-1.4 13.9.618 16.282 4.5s-1.034 8.18-7.625 9.581-13.895-.617-16.282-4.5 1.034-8.18 7.625-9.581Zm5.356 11.075c3.24-.688 5.318-2.79 3.749-5.227-.86.187-1.6.381-2.25.581-3 .923-3.917 1.974-4.176 3.032a6.9 6.9 0 0 0-.062 1.845 11.383 11.383 0 0 0 2.739-.231m-4.645-7.514a7.7 7.7 0 0 0-3.116 1.363c2.009 1.035 3.95 2.349 8.579 1.365q.359-.077.741-.172a27.354 27.354 0 0 0 1.952-.57 6.821 6.821 0 0 0-2.964-1.774 10.482 10.482 0 0 0-5.192-.212" fill="#181818"/><path d="m149.283 76.294-4.232.794a5.857 5.857 0 0 1 .609 1.646l4.413-.3a6.822 6.822 0 0 1-.382 3.941l-4.328-.6a8.1 8.1 0 0 1-2.675 3.322l3.522 1.594a18.756 18.756 0 0 1-4.588 2.532l-2.469-2.178a20.22 20.22 0 0 1-2.522.793l1.72 2.415-.325.079c-.261.06-.412.094-.562.126-.23.048-.458.092-.688.134l-1.354-2.492a24.214 24.214 0 0 1-2.795.357l.522 2.6a32.428 32.428 0 0 1-6.7-.23l1.018-2.547a20.734 20.734 0 0 1-5.641-1.58l-2.707 2.073a17.16 17.16 0 0 1-4.3-2.7l3.7-1.451a8.85 8.85 0 0 1-1.351-1.486l-4.1 1.01a6.136 6.136 0 0 1-.136-.193c-.072-.108-.1-.149-.125-.19l-.087-.14c-.1-.172-.165-.289-.23-.4l4.232-.8a5.826 5.826 0 0 1-.609-1.646l-4.414.305a6.836 6.836 0 0 1 .382-3.942l4.329.6a8.11 8.11 0 0 1 2.676-3.32l-3.524-1.6a18.814 18.814 0 0 1 4.588-2.531l2.469 2.178a20.07 20.07 0 0 1 2.523-.794l-1.717-2.415c.145-.037.292-.072.441-.107l.2-.046.238-.051c.293-.061.491-.1.687-.135l1.355 2.492a24.225 24.225 0 0 1 2.794-.357l-.522-2.6a32.429 32.429 0 0 1 6.7.229l-1.018 2.546a20.846 20.846 0 0 1 5.644 1.578l2.7-2.072a17.189 17.189 0 0 1 4.305 2.7l-3.7 1.451a8.889 8.889 0 0 1 1.351 1.486l4.1-1.008c.061.084.121.17.178.257s.115.175.169.264c.089.139.164.273.236.409Zm-13.724 11.06c7.118-1.513 10.812-6.155 8.234-10.347s-10.464-6.372-17.582-4.859-10.811 6.152-8.234 10.346 10.464 6.373 17.582 4.86" fill="#181818"/><path d="M148.651 73.932a10.868 10.868 0 0 1 1.36 1.753 8.58 8.58 0 0 1 .861 1.859c1.628 5.053-2.452 10.18-10.086 12.673a29.1 29.1 0 0 1-2.976.8c-1.043.222-2.1.387-3.156.5-8.577.952-17.293-1.455-21.536-5.952a10.86 10.86 0 0 1-1.356-1.754 8.545 8.545 0 0 1-.864-1.858c-1.627-5.051 2.455-10.18 10.085-12.673a29.193 29.193 0 0 1 2.977-.8q1.566-.333 3.156-.506c8.584-.947 17.292 1.461 21.535 5.958Zm.632 2.362a7.19 7.19 0 0 0-.399-.669 7.805 7.805 0 0 0-.178-.257l-4.1 1.008a8.889 8.889 0 0 0-1.351-1.486l3.7-1.451a17.189 17.189 0 0 0-4.305-2.7l-2.7 2.072a20.846 20.846 0 0 0-5.644-1.578l1.018-2.548a32.429 32.429 0 0 0-6.7-.229l.522 2.6a24.225 24.225 0 0 0-2.794.357l-1.355-2.492c-.2.038-.394.074-.591.115l-.329.07-.21.047c-.149.035-.3.07-.441.107l1.717 2.415a20.07 20.07 0 0 0-2.523.794l-2.469-2.178a18.814 18.814 0 0 0-4.588 2.531l3.524 1.6a8.11 8.11 0 0 0-2.676 3.32l-4.329-.6a6.836 6.836 0 0 0-.382 3.942l4.414-.305a5.826 5.826 0 0 0 .609 1.646l-4.232.8c.065.115.127.232.2.348s.09.148.12.194l.081.125c.089.132.134.2.181.26l4.1-1.01a8.85 8.85 0 0 0 1.351 1.486l-3.7 1.451a17.16 17.16 0 0 0 4.3 2.7l2.707-2.073a20.734 20.734 0 0 0 5.641 1.58l-1.018 2.547a32.428 32.428 0 0 0 6.7.23l-.522-2.6a24.214 24.214 0 0 0 2.795-.357l1.354 2.492c.23-.042.458-.086.688-.134l.449-.1c.222-.052.331-.078.438-.105l-1.72-2.415a20.22 20.22 0 0 0 2.522-.793l2.469 2.178a18.756 18.756 0 0 0 4.588-2.532l-3.522-1.594a8.1 8.1 0 0 0 2.675-3.322l4.328.6a6.822 6.822 0 0 0 .382-3.941l-4.413.3a5.857 5.857 0 0 0-.609-1.646l4.232-.794" fill="#ddd"/><path d="M135.661 78.558c1.569 2.437-.509 4.539-3.749 5.227a11.383 11.383 0 0 1-2.739.231 6.9 6.9 0 0 1 .062-1.845c.259-1.058 1.18-2.109 4.176-3.032a27.13 27.13 0 0 1 2.25-.581Z" fill="#ddd"/><g style="isolation:isolate" clip-path="url(#l)"><path d="M151.227 79.771v2.457-2.457" fill="#949494"/><path d="M151.224 79.94v2.288a7.05 7.05 0 0 1-.132 1.194v-2.288a7.061 7.061 0 0 0 .132-1.194" fill="#999"/><path d="M151.092 81.134v2.288a7.586 7.586 0 0 1-.337 1.186v-2.289a7.57 7.57 0 0 0 .336-1.185" fill="#9e9e9e"/><path d="M150.756 82.319v2.289a8.4 8.4 0 0 1-.565 1.209v-2.288a8.636 8.636 0 0 0 .565-1.21" fill="#a3a3a3"/><path d="M150.191 83.529v2.288a9.97 9.97 0 0 1-.869 1.288v-2.288a10.082 10.082 0 0 0 .87-1.288" fill="#a8a8a8"/><path d="M149.321 84.817v2.288a12.3 12.3 0 0 1-1.4 1.487v-2.288a12.3 12.3 0 0 0 1.4-1.487" fill="#adadad"/><path d="M147.919 86.3v2.288a17.127 17.127 0 0 1-3.728 2.514v-2.288a17.179 17.179 0 0 0 3.727-2.514" fill="#b3b3b3"/><path d="M144.192 88.818v2.288q-.679.345-1.418.658v-2.288q.736-.312 1.418-.658" fill="#b8b8b8"/><path d="M142.774 89.476v2.288q-.948.4-1.987.741a29.1 29.1 0 0 1-2.976.8l-.08.017v-2.288l.08-.017a29.1 29.1 0 0 0 2.976-.8q1.038-.339 1.988-.741" fill="#b3b3b3"/><path d="M137.73 91.033v2.288c-.915.192-1.839.34-2.765.452v-2.288c.926-.112 1.85-.26 2.765-.452" fill="#adadad"/><path d="M134.965 91.485v2.288l-.311.036q-1 .111-2 .162v-2.288q1-.051 2-.162l.311-.036" fill="#a8a8a8"/><path d="M132.65 91.683v2.288c-.708.036-1.415.05-2.117.042v-2.288c.7.008 1.409-.006 2.117-.042" fill="#a3a3a3"/><path d="M130.533 91.725v2.288q-1.023-.013-2.033-.082v-2.288q1 .07 2.027.082" fill="#9e9e9e"/><path d="M128.506 91.643v2.288a36.606 36.606 0 0 1-2.014-.2v-2.288q1 .131 2.015.2" fill="#999"/><path d="M126.491 91.44v2.288c-.7-.092-1.385-.2-2.059-.338v-2.289q1.013.2 2.059.339" fill="#949494"/><path d="M124.432 91.1v2.289a30.406 30.406 0 0 1-2.194-.52v-2.288q1.071.3 2.194.519" fill="#8f8f8f"/><path d="M122.238 90.582v2.288c-.88-.244-1.73-.524-2.544-.84v-2.288c.814.316 1.665.6 2.544.84" fill="#8a8a8a"/><path d="M119.694 89.742v2.288a17.917 17.917 0 0 1-6.576-4.173 10.86 10.86 0 0 1-1.358-1.757 8.545 8.545 0 0 1-.864-1.858 7.2 7.2 0 0 1-.355-2.224V79.73a7.2 7.2 0 0 0 .354 2.224 8.545 8.545 0 0 0 .864 1.858 10.86 10.86 0 0 0 1.356 1.754 17.917 17.917 0 0 0 6.576 4.173" fill="#858585"/></g></g></g></svg>