<svg width="138" height="20" fill="none" xmlns="http://www.w3.org/2000/svg"><path d="M95.812 0c-.456 0-.835.305-.867.761-.2 2.908 1.02 13.152 28.105 13.152 0-10.297 12.211-10.578 14.598-13.026.386-.395-.046-.887-.598-.887H95.812Z" fill="url(#a)"/><path d="M42.238 0c.456 0 .836.305.867.761.2 2.908-1.02 13.152-28.105 13.152C15 3.616 2.79 3.335.402.887.016.492.448 0 1 0h41.238Z" fill="url(#b)"/><defs><linearGradient id="a" x1="104.8" y1="-.957" x2="104.8" y2="29.652" gradientUnits="userSpaceOnUse"><stop stop-color="#9C9C9C"/><stop offset=".062" stop-color="#E0DCD7"/><stop offset=".175" stop-color="#868686"/><stop offset=".561" stop-color="#DAD7D4"/><stop offset=".885" stop-color="#ADADAD"/></linearGradient><linearGradient id="b" x1="33.25" y1="-.957" x2="33.25" y2="29.652" gradientUnits="userSpaceOnUse"><stop stop-color="#9C9C9C"/><stop offset=".062" stop-color="#E0DCD7"/><stop offset=".175" stop-color="#868686"/><stop offset=".561" stop-color="#DAD7D4"/><stop offset=".885" stop-color="#ADADAD"/></linearGradient></defs></svg>
